<?xml version="1.0" encoding="utf-8"?>
<svg id="Layer_1" data-name="Layer 1" viewBox="0 0 391.08 391.08" xmlns="http://www.w3.org/2000/svg">
  <defs>
    <style>.cls-1{fill:#fff;stroke:#666766;stroke-miterlimit:10;stroke-width:3px;}.cls-2{fill:#666766;}</style>
  </defs>
  <title>Icon_exit-runningman_greyonwhite_yukioota-ISO</title>
  <g id="layer1">
    <g id="g5653">
      <path id="path3495" class="cls-2" d="M329.22,289.85l-8.63-22.91A24.63,24.63,0,0,0,297.41,251h-3.77V53.69H106.27V162.87H130.8l28-35A31.76,31.76,0,0,1,182.56,117h59.85a24.64,24.64,0,0,1,22.11,13.48l17.79,33.7a9.59,9.59,0,0,1,1.35,5.12,11.57,11.57,0,0,1-11.32,11.32,11,11,0,0,1-10.24-5.93L246.18,144H220.3l19.95,49.6L246.18,257h51.22c8.09,0,14.56,5.12,17.79,12.13l5.66,14.56H232.44c-6.47,0-12.13-4.85-12.4-11.32l-5.93-55.54-47.45,98.4A17,17,0,0,1,151,324.62H128.1l58.23-120.51-18.06-45.29-17.25,21a24.67,24.67,0,0,1-19.41,9.44H106.27V331.63l40.44,40.17H27.28V27H372.62V372.34H333.8l-40.17-40.17V289.85h35.59" transform="translate(-4.8 -5.17)" style="fill: rgb(116, 89, 82);"/>
      <path id="path3497" class="cls-2" d="M167.73,66.63h2.7l1.35,0.27,1.08,0.27,1.08,0.27L175,67.71l1.08,0.54,1.08,0.54,1.08,0.54,1.08,0.54,1.08,0.54,1.08,0.54,0.81,0.81,0.81,0.81,0.81,0.81,0.81,0.81L185.53,75l0.81,0.81,0.81,0.81L188,77.68l0.54,1.08L189,79.84l0.54,1.08L190.11,82l0.54,1.08,0.27,1.08,0.27,1.08,0.27,1.08,0.27,1.08L192,88.74v2.7c0,13.48-11.32,24.26-24.53,24.26A24.16,24.16,0,0,1,143.2,91.43C143.2,78,154.52,66.63,167.73,66.63Z" transform="translate(-4.8 -5.17)" style="fill: rgb(116, 89, 82);"/>
      <path id="path3499" class="cls-2" d="M178.52,341.07l31,31H172L131.61,331.9h24.26A33.46,33.46,0,0,1,178.52,341.07Z" transform="translate(-4.8 -5.17)" style="fill: rgb(116, 89, 82);"/>
    </g>
  </g>
</svg>