<svg width="33" height="33" viewBox="0 0 33 33" fill="none" xmlns="http://www.w3.org/2000/svg">
<path d="M21.9708 2H10.6379C5.86732 2 2 5.92021 2 10.756V22.244C2 27.0798 5.86732 31 10.6379 31H21.9708C26.7414 31 30.6087 27.0798 30.6087 22.244V10.756C30.6087 5.92021 26.7414 2 21.9708 2Z" fill="#E7D4C9" stroke="#805B56" stroke-width="3" stroke-linecap="round" stroke-linejoin="round"/>
<path d="M16.3045 22.9006C19.7918 22.9006 22.6188 20.035 22.6188 16.5C22.6188 12.965 19.7918 10.0993 16.3045 10.0993C12.8172 10.0993 9.99023 12.965 9.99023 16.5C9.99023 20.035 12.8172 22.9006 16.3045 22.9006Z" stroke="#805B56" stroke-width="3" stroke-linecap="round" stroke-linejoin="round"/>
<path d="M24.4497 9.81917C25.5422 9.81917 26.4278 8.92144 26.4278 7.81403C26.4278 6.70663 25.5422 5.8089 24.4497 5.8089C23.3573 5.8089 22.4717 6.70663 22.4717 7.81403C22.4717 8.92144 23.3573 9.81917 24.4497 9.81917Z" fill="#805B56"/>
</svg>
