<svg id="svg" version="1.1" xmlns="http://www.w3.org/2000/svg" xmlns:xlink="http://www.w3.org/1999/xlink" width="400" height="400" viewBox="0, 0, 400,400"><g id="svgg"><path id="path0" d="M92.800 1.000 C 92.800 1.480,92.200 1.600,89.800 1.600 C 88.067 1.600,86.800 1.769,86.800 2.000 C 86.800 2.220,85.804 2.400,84.587 2.400 C 82.990 2.400,82.311 2.567,82.145 3.000 C 81.983 3.420,81.328 3.600,79.957 3.600 C 78.881 3.600,78.000 3.780,78.000 4.000 C 78.000 4.220,77.370 4.400,76.600 4.400 C 75.830 4.400,75.200 4.580,75.200 4.800 C 75.200 5.020,74.654 5.200,73.987 5.200 C 73.279 5.200,72.679 5.449,72.545 5.800 C 72.403 6.170,71.795 6.400,70.957 6.400 C 70.211 6.400,69.600 6.580,69.600 6.800 C 69.600 7.020,69.150 7.200,68.600 7.200 C 67.978 7.200,67.600 7.427,67.600 7.800 C 67.600 8.235,67.153 8.400,65.976 8.400 C 64.996 8.400,64.451 8.558,64.600 8.800 C 64.740 9.027,64.404 9.200,63.824 9.200 C 63.161 9.200,62.800 9.421,62.800 9.827 C 62.800 10.272,62.568 10.380,61.998 10.199 C 61.465 10.030,61.115 10.155,60.955 10.572 C 60.823 10.918,60.284 11.200,59.757 11.200 C 59.231 11.200,58.800 11.380,58.800 11.600 C 58.800 11.820,58.434 12.000,57.987 12.000 C 57.541 12.000,57.071 12.270,56.945 12.600 C 56.818 12.930,56.284 13.200,55.757 13.200 C 55.231 13.200,54.800 13.380,54.800 13.600 C 54.800 13.820,54.350 14.000,53.800 14.000 C 53.250 14.000,52.800 14.193,52.800 14.429 C 52.800 15.134,51.714 16.000,50.829 16.000 C 50.359 16.000,50.000 16.260,50.000 16.600 C 50.000 16.930,49.865 17.179,49.700 17.153 C 48.987 17.040,48.497 17.251,47.665 18.026 C 47.177 18.480,46.423 18.878,45.989 18.911 C 45.555 18.943,45.200 19.202,45.200 19.485 C 45.200 19.768,44.919 20.000,44.576 20.000 C 44.233 20.000,44.064 20.180,44.200 20.400 C 44.336 20.620,44.167 20.800,43.824 20.800 C 43.481 20.800,43.200 21.070,43.200 21.400 C 43.200 21.730,42.885 22.006,42.500 22.013 C 41.621 22.029,40.400 22.933,40.400 23.568 C 40.400 23.831,40.253 23.956,40.073 23.845 C 39.893 23.734,39.132 24.353,38.382 25.221 C 37.632 26.090,36.718 26.800,36.352 26.800 C 35.985 26.800,35.578 27.081,35.446 27.425 C 35.311 27.775,35.001 27.924,34.741 27.764 C 34.482 27.604,34.383 27.650,34.518 27.867 C 34.760 28.258,33.479 29.600,32.863 29.600 C 32.683 29.600,32.305 30.030,32.024 30.556 C 31.742 31.082,31.082 31.742,30.556 32.024 C 30.030 32.305,29.600 32.683,29.600 32.863 C 29.600 33.479,28.258 34.760,27.867 34.518 C 27.650 34.383,27.604 34.482,27.764 34.741 C 27.924 35.001,27.775 35.311,27.425 35.446 C 27.081 35.578,26.800 35.985,26.800 36.352 C 26.800 36.718,26.090 37.632,25.221 38.382 C 24.353 39.132,23.734 39.893,23.845 40.073 C 23.956 40.253,23.831 40.400,23.568 40.400 C 22.933 40.400,22.029 41.621,22.013 42.500 C 22.006 42.885,21.730 43.200,21.400 43.200 C 21.070 43.200,20.800 43.481,20.800 43.824 C 20.800 44.167,20.620 44.336,20.400 44.200 C 20.180 44.064,20.000 44.233,20.000 44.576 C 20.000 44.919,19.768 45.200,19.485 45.200 C 19.202 45.200,18.943 45.555,18.911 45.989 C 18.878 46.423,18.480 47.177,18.026 47.665 C 17.251 48.497,17.040 48.987,17.153 49.700 C 17.179 49.865,16.930 50.000,16.600 50.000 C 16.260 50.000,16.000 50.359,16.000 50.829 C 16.000 51.714,15.134 52.800,14.429 52.800 C 14.193 52.800,14.000 53.250,14.000 53.800 C 14.000 54.350,13.820 54.800,13.600 54.800 C 13.380 54.800,13.200 55.231,13.200 55.757 C 13.200 56.284,12.930 56.818,12.600 56.945 C 12.270 57.071,12.000 57.541,12.000 57.987 C 12.000 58.434,11.820 58.800,11.600 58.800 C 11.380 58.800,11.200 59.231,11.200 59.757 C 11.200 60.284,10.918 60.823,10.572 60.955 C 10.155 61.115,10.030 61.465,10.199 61.998 C 10.380 62.568,10.272 62.800,9.827 62.800 C 9.421 62.800,9.200 63.161,9.200 63.824 C 9.200 64.404,9.027 64.740,8.800 64.600 C 8.558 64.451,8.400 64.996,8.400 65.976 C 8.400 67.153,8.235 67.600,7.800 67.600 C 7.427 67.600,7.200 67.978,7.200 68.600 C 7.200 69.150,7.020 69.600,6.800 69.600 C 6.580 69.600,6.400 70.211,6.400 70.957 C 6.400 71.795,6.170 72.403,5.800 72.545 C 5.449 72.679,5.200 73.279,5.200 73.987 C 5.200 74.654,5.020 75.200,4.800 75.200 C 4.580 75.200,4.400 75.830,4.400 76.600 C 4.400 77.370,4.220 78.000,4.000 78.000 C 3.780 78.000,3.600 78.881,3.600 79.957 C 3.600 81.328,3.420 81.983,3.000 82.145 C 2.567 82.311,2.400 82.990,2.400 84.587 C 2.400 85.804,2.220 86.800,2.000 86.800 C 1.769 86.800,1.600 88.067,1.600 89.800 C 1.600 92.200,1.480 92.800,1.000 92.800 C 0.384 92.800,0.029 306.167,0.642 307.765 C 0.775 308.112,1.045 308.296,1.242 308.174 C 1.441 308.051,1.600 309.298,1.600 310.976 C 1.600 312.725,1.769 314.000,2.000 314.000 C 2.220 314.000,2.400 314.900,2.400 316.000 C 2.400 317.511,2.547 318.000,3.000 318.000 C 3.443 318.000,3.600 318.464,3.600 319.776 C 3.600 320.753,3.780 321.664,4.000 321.800 C 4.220 321.936,4.400 322.847,4.400 323.824 C 4.400 324.801,4.580 325.600,4.800 325.600 C 5.020 325.600,5.200 326.035,5.200 326.567 C 5.200 327.877,5.606 328.844,6.042 328.574 C 6.239 328.452,6.400 328.983,6.400 329.753 C 6.400 330.523,6.580 331.264,6.800 331.400 C 7.020 331.536,7.200 332.087,7.200 332.624 C 7.200 333.225,7.431 333.600,7.800 333.600 C 8.197 333.600,8.400 333.997,8.400 334.776 C 8.400 335.423,8.580 336.064,8.800 336.200 C 9.020 336.336,9.200 336.710,9.200 337.032 C 9.200 337.353,9.650 338.329,10.200 339.200 C 10.750 340.071,11.200 341.148,11.200 341.592 C 11.200 342.036,11.380 342.400,11.600 342.400 C 11.820 342.400,12.000 342.676,12.000 343.013 C 12.000 343.349,12.270 343.729,12.600 343.855 C 12.930 343.982,13.200 344.451,13.200 344.897 C 13.200 345.343,13.650 346.125,14.200 346.635 C 14.750 347.145,15.200 347.930,15.200 348.381 C 15.200 348.831,15.380 349.200,15.600 349.200 C 15.820 349.200,16.000 349.476,16.000 349.813 C 16.000 350.149,16.269 350.528,16.598 350.654 C 16.926 350.781,17.095 351.046,16.972 351.245 C 16.850 351.443,17.031 351.714,17.375 351.846 C 17.719 351.978,18.000 352.486,18.000 352.975 C 18.000 353.515,18.394 354.075,19.000 354.400 C 19.550 354.694,20.006 355.220,20.013 355.568 C 20.029 356.376,20.951 357.600,21.544 357.600 C 21.795 357.600,22.000 357.870,22.000 358.200 C 22.000 358.530,22.180 358.800,22.400 358.800 C 22.620 358.800,22.800 359.147,22.800 359.571 C 22.800 359.995,23.250 360.696,23.800 361.129 C 24.350 361.561,24.800 362.114,24.800 362.358 C 24.800 362.601,24.935 362.800,25.100 362.800 C 25.611 362.801,27.600 364.668,27.600 365.147 C 27.600 365.396,27.793 365.600,28.029 365.600 C 28.654 365.600,29.600 366.648,29.600 367.341 C 29.600 368.004,31.836 370.400,32.454 370.400 C 32.670 370.400,32.736 370.580,32.600 370.800 C 32.460 371.027,32.796 371.200,33.376 371.200 C 34.020 371.200,34.400 371.423,34.400 371.800 C 34.400 372.130,34.593 372.400,34.829 372.400 C 35.382 372.400,36.400 373.418,36.400 373.971 C 36.400 374.207,36.681 374.400,37.024 374.400 C 37.367 374.400,37.536 374.580,37.400 374.800 C 37.264 375.020,37.363 375.200,37.619 375.200 C 37.875 375.200,38.439 375.650,38.871 376.200 C 39.304 376.750,40.005 377.200,40.429 377.200 C 40.853 377.200,41.200 377.380,41.200 377.600 C 41.200 377.820,41.470 378.000,41.800 378.000 C 42.130 378.000,42.400 378.193,42.400 378.429 C 42.400 379.134,43.486 380.000,44.371 380.000 C 44.841 380.000,45.200 380.260,45.200 380.600 C 45.200 380.930,45.335 381.200,45.500 381.200 C 45.665 381.201,46.310 381.639,46.933 382.175 C 47.556 382.711,48.321 383.052,48.633 382.932 C 48.945 382.812,49.200 382.939,49.200 383.213 C 49.200 383.850,50.403 384.771,51.257 384.787 C 51.619 384.794,52.018 385.070,52.145 385.400 C 52.271 385.730,52.741 386.000,53.187 386.000 C 53.634 386.000,54.000 386.180,54.000 386.400 C 54.000 386.620,54.450 386.800,55.000 386.800 C 55.550 386.800,56.000 387.005,56.000 387.256 C 56.000 387.860,57.230 388.771,58.067 388.787 C 58.433 388.794,58.793 388.935,58.867 389.100 C 59.112 389.653,61.654 390.800,62.632 390.800 C 63.165 390.800,63.600 390.980,63.600 391.200 C 63.600 391.420,64.050 391.600,64.600 391.600 C 65.222 391.600,65.600 391.827,65.600 392.200 C 65.600 392.573,65.978 392.800,66.600 392.800 C 67.150 392.800,67.600 392.980,67.600 393.200 C 67.600 393.420,68.230 393.600,69.000 393.600 C 69.978 393.600,70.400 393.781,70.400 394.200 C 70.400 394.617,70.820 394.800,71.776 394.800 C 72.533 394.800,73.264 394.980,73.400 395.200 C 73.536 395.420,74.252 395.600,74.990 395.600 C 75.729 395.600,76.397 395.792,76.475 396.026 C 76.553 396.260,77.378 396.554,78.309 396.678 C 79.239 396.803,80.000 397.062,80.000 397.253 C 80.000 397.444,80.900 397.600,82.000 397.600 C 83.100 397.600,84.000 397.780,84.000 398.000 C 84.000 398.220,85.015 398.400,86.256 398.400 C 87.943 398.400,88.641 398.577,89.024 399.100 C 89.508 399.763,95.050 399.807,193.868 399.928 C 300.615 400.059,312.000 399.965,312.000 398.957 C 312.000 398.543,312.616 398.400,314.400 398.400 C 315.733 398.400,316.800 398.222,316.800 398.000 C 316.800 397.780,317.700 397.600,318.800 397.600 C 319.900 397.600,320.800 397.420,320.800 397.200 C 320.800 396.980,321.295 396.799,321.900 396.798 C 322.505 396.796,323.516 396.526,324.146 396.198 C 324.776 395.869,325.796 395.600,326.412 395.600 C 327.029 395.600,327.593 395.426,327.667 395.213 C 327.740 395.000,328.385 394.781,329.100 394.728 C 329.843 394.672,330.400 394.409,330.400 394.115 C 330.400 393.832,330.850 393.600,331.400 393.600 C 331.950 393.600,332.400 393.431,332.400 393.224 C 332.400 393.017,333.075 392.792,333.900 392.724 C 334.838 392.647,335.363 392.413,335.300 392.100 C 335.241 391.807,335.613 391.600,336.200 391.600 C 336.750 391.600,337.200 391.420,337.200 391.200 C 337.200 390.980,337.650 390.800,338.200 390.800 C 338.841 390.800,339.200 390.575,339.200 390.173 C 339.200 389.728,339.432 389.620,340.002 389.801 C 340.535 389.970,340.885 389.845,341.045 389.428 C 341.177 389.082,341.716 388.800,342.243 388.800 C 342.769 388.800,343.200 388.620,343.200 388.400 C 343.200 388.180,343.650 388.000,344.200 388.000 C 344.822 388.000,345.200 387.773,345.200 387.400 C 345.200 387.070,345.442 386.800,345.739 386.800 C 346.559 386.800,348.920 385.550,349.647 384.730 C 350.003 384.328,350.601 384.000,350.975 384.000 C 351.738 384.000,352.800 383.085,352.800 382.429 C 352.800 382.193,353.141 382.000,353.558 382.000 C 353.975 382.000,354.740 381.553,355.258 381.007 C 355.776 380.461,356.449 380.011,356.753 380.007 C 357.057 380.003,357.900 379.370,358.626 378.600 C 359.352 377.830,360.138 377.200,360.373 377.200 C 360.608 377.200,360.800 377.061,360.800 376.891 C 360.800 376.721,361.409 376.254,362.152 375.854 C 362.896 375.453,363.737 374.692,364.020 374.163 C 364.303 373.633,364.698 373.200,364.896 373.200 C 365.395 373.200,366.400 372.150,366.400 371.629 C 366.400 371.393,366.589 371.200,366.819 371.200 C 367.365 371.200,371.200 367.365,371.200 366.819 C 371.200 366.589,371.393 366.400,371.629 366.400 C 372.150 366.400,373.200 365.395,373.200 364.896 C 373.200 364.698,373.633 364.303,374.163 364.020 C 374.692 363.737,375.453 362.896,375.854 362.152 C 376.254 361.409,376.721 360.800,376.891 360.800 C 377.061 360.800,377.200 360.608,377.200 360.373 C 377.200 360.138,377.830 359.352,378.600 358.626 C 379.370 357.900,380.003 357.057,380.007 356.753 C 380.011 356.449,380.461 355.776,381.007 355.258 C 381.553 354.740,382.000 353.975,382.000 353.558 C 382.000 353.141,382.205 352.800,382.456 352.800 C 383.022 352.800,383.970 351.591,383.987 350.847 C 383.994 350.543,384.328 350.003,384.730 349.647 C 385.550 348.920,386.800 346.559,386.800 345.739 C 386.800 345.442,387.070 345.200,387.400 345.200 C 387.773 345.200,388.000 344.822,388.000 344.200 C 388.000 343.650,388.180 343.200,388.400 343.200 C 388.620 343.200,388.800 342.769,388.800 342.243 C 388.800 341.716,389.082 341.177,389.428 341.045 C 389.845 340.885,389.970 340.535,389.801 340.002 C 389.620 339.432,389.728 339.200,390.173 339.200 C 390.575 339.200,390.800 338.841,390.800 338.200 C 390.800 337.650,390.980 337.200,391.200 337.200 C 391.420 337.200,391.600 336.750,391.600 336.200 C 391.600 335.613,391.807 335.241,392.100 335.300 C 392.413 335.363,392.647 334.838,392.724 333.900 C 392.792 333.075,393.017 332.400,393.224 332.400 C 393.431 332.400,393.600 331.950,393.600 331.400 C 393.600 330.850,393.832 330.400,394.115 330.400 C 394.409 330.400,394.672 329.843,394.728 329.100 C 394.781 328.385,395.000 327.740,395.213 327.667 C 395.426 327.593,395.600 327.029,395.600 326.412 C 395.600 325.796,395.869 324.776,396.198 324.146 C 396.526 323.516,396.796 322.505,396.798 321.900 C 396.799 321.295,396.980 320.800,397.200 320.800 C 397.420 320.800,397.600 319.900,397.600 318.800 C 397.600 317.700,397.780 316.800,398.000 316.800 C 398.222 316.800,398.400 315.733,398.400 314.400 C 398.400 312.616,398.543 312.000,398.957 312.000 C 399.965 312.000,400.059 300.615,399.928 193.868 C 399.807 95.050,399.763 89.508,399.100 89.024 C 398.577 88.641,398.400 87.943,398.400 86.256 C 398.400 85.015,398.220 84.000,398.000 84.000 C 397.780 84.000,397.600 83.100,397.600 82.000 C 397.600 80.900,397.444 80.000,397.253 80.000 C 397.062 80.000,396.803 79.239,396.678 78.309 C 396.554 77.378,396.260 76.553,396.026 76.475 C 395.792 76.397,395.600 75.729,395.600 74.990 C 395.600 74.252,395.420 73.536,395.200 73.400 C 394.980 73.264,394.800 72.533,394.800 71.776 C 394.800 70.820,394.617 70.400,394.200 70.400 C 393.781 70.400,393.600 69.978,393.600 69.000 C 393.600 68.230,393.420 67.600,393.200 67.600 C 392.980 67.600,392.800 67.150,392.800 66.600 C 392.800 65.978,392.573 65.600,392.200 65.600 C 391.827 65.600,391.600 65.222,391.600 64.600 C 391.600 64.050,391.420 63.600,391.200 63.600 C 390.980 63.600,390.800 63.165,390.800 62.632 C 390.800 61.654,389.653 59.112,389.100 58.867 C 388.935 58.793,388.794 58.433,388.787 58.067 C 388.771 57.230,387.860 56.000,387.256 56.000 C 387.005 56.000,386.800 55.550,386.800 55.000 C 386.800 54.450,386.620 54.000,386.400 54.000 C 386.180 54.000,386.000 53.634,386.000 53.187 C 386.000 52.741,385.730 52.271,385.400 52.145 C 385.070 52.018,384.794 51.619,384.787 51.257 C 384.771 50.403,383.850 49.200,383.213 49.200 C 382.939 49.200,382.812 48.945,382.932 48.633 C 383.052 48.321,382.711 47.556,382.175 46.933 C 381.639 46.310,381.201 45.665,381.200 45.500 C 381.200 45.335,380.930 45.200,380.600 45.200 C 380.260 45.200,380.000 44.841,380.000 44.371 C 380.000 43.486,379.134 42.400,378.429 42.400 C 378.193 42.400,378.000 42.130,378.000 41.800 C 378.000 41.470,377.820 41.200,377.600 41.200 C 377.380 41.200,377.200 40.853,377.200 40.429 C 377.200 40.005,376.750 39.304,376.200 38.871 C 375.650 38.439,375.200 37.856,375.200 37.576 C 375.200 37.296,375.098 37.169,374.973 37.294 C 374.688 37.579,372.400 35.373,372.400 34.813 C 372.400 34.586,372.130 34.400,371.800 34.400 C 371.423 34.400,371.200 34.020,371.200 33.376 C 371.200 32.796,371.027 32.460,370.800 32.600 C 370.580 32.736,370.400 32.670,370.400 32.454 C 370.400 31.836,368.004 29.600,367.341 29.600 C 366.648 29.600,365.600 28.654,365.600 28.029 C 365.600 27.793,365.396 27.600,365.147 27.600 C 364.668 27.600,362.801 25.611,362.800 25.100 C 362.800 24.935,362.601 24.800,362.358 24.800 C 362.114 24.800,361.561 24.350,361.129 23.800 C 360.696 23.250,359.995 22.800,359.571 22.800 C 359.147 22.800,358.800 22.620,358.800 22.400 C 358.800 22.180,358.530 22.000,358.200 22.000 C 357.870 22.000,357.600 21.795,357.600 21.544 C 357.600 20.951,356.376 20.029,355.568 20.013 C 355.220 20.006,354.694 19.550,354.400 19.000 C 354.075 18.394,353.515 18.000,352.975 18.000 C 352.486 18.000,351.978 17.719,351.846 17.375 C 351.714 17.031,351.443 16.850,351.245 16.972 C 351.046 17.095,350.781 16.926,350.654 16.598 C 350.528 16.269,350.149 16.000,349.813 16.000 C 349.476 16.000,349.200 15.820,349.200 15.600 C 349.200 15.380,348.831 15.200,348.381 15.200 C 347.930 15.200,347.145 14.750,346.635 14.200 C 346.125 13.650,345.343 13.200,344.897 13.200 C 344.451 13.200,343.982 12.930,343.855 12.600 C 343.729 12.270,343.349 12.000,343.013 12.000 C 342.676 12.000,342.400 11.820,342.400 11.600 C 342.400 11.380,342.036 11.200,341.592 11.200 C 341.148 11.200,340.071 10.750,339.200 10.200 C 338.329 9.650,337.353 9.200,337.032 9.200 C 336.710 9.200,336.336 9.020,336.200 8.800 C 336.064 8.580,335.423 8.400,334.776 8.400 C 333.997 8.400,333.600 8.197,333.600 7.800 C 333.600 7.431,333.225 7.200,332.624 7.200 C 332.087 7.200,331.536 7.020,331.400 6.800 C 331.264 6.580,330.523 6.400,329.753 6.400 C 328.983 6.400,328.452 6.239,328.574 6.042 C 328.844 5.606,327.877 5.200,326.567 5.200 C 326.035 5.200,325.600 5.020,325.600 4.800 C 325.600 4.580,324.801 4.400,323.824 4.400 C 322.847 4.400,321.936 4.220,321.800 4.000 C 321.664 3.780,320.753 3.600,319.776 3.600 C 318.464 3.600,318.000 3.443,318.000 3.000 C 318.000 2.547,317.511 2.400,316.000 2.400 C 314.900 2.400,314.000 2.220,314.000 2.000 C 314.000 1.769,312.725 1.600,310.976 1.600 C 309.298 1.600,308.051 1.441,308.174 1.242 C 308.296 1.045,308.112 0.775,307.765 0.642 C 306.167 0.029,92.800 0.384,92.800 1.000 M303.000 37.511 C 306.152 37.980,309.165 38.616,310.979 39.195 C 317.055 41.135,318.883 41.779,320.711 42.624 C 321.872 43.161,322.997 43.600,323.211 43.600 C 323.425 43.600,323.600 43.780,323.600 44.000 C 323.600 44.220,323.874 44.400,324.208 44.400 C 324.542 44.400,325.529 44.850,326.400 45.400 C 327.271 45.950,328.082 46.400,328.201 46.400 C 328.547 46.400,331.787 48.570,331.933 48.900 C 332.007 49.065,332.244 49.200,332.460 49.200 C 332.791 49.200,335.351 50.936,336.000 51.600 C 336.110 51.713,337.370 52.791,338.800 53.997 C 344.133 58.492,352.800 68.647,352.800 70.401 C 352.800 70.621,352.939 70.800,353.108 70.800 C 353.458 70.800,357.962 79.668,358.999 82.400 C 359.375 83.390,359.844 84.513,360.041 84.895 C 360.238 85.277,360.400 86.006,360.400 86.515 C 360.400 87.024,360.570 87.611,360.777 87.820 C 361.228 88.275,361.947 90.973,362.423 94.000 C 363.986 103.941,363.952 101.639,363.977 200.182 C 363.999 292.739,363.894 301.913,362.778 304.600 C 362.595 305.040,362.363 306.120,362.263 307.000 C 362.053 308.847,361.343 311.838,360.838 313.000 C 360.647 313.440,360.257 314.610,359.970 315.600 C 359.045 318.792,354.509 328.400,353.926 328.400 C 353.747 328.400,353.600 328.760,353.600 329.200 C 353.600 329.640,353.420 330.000,353.200 330.000 C 352.980 330.000,352.800 330.183,352.800 330.406 C 352.800 330.785,349.601 335.379,347.802 337.583 C 346.761 338.859,338.859 346.761,337.583 347.802 C 335.379 349.601,330.785 352.800,330.406 352.800 C 330.183 352.800,330.000 352.980,330.000 353.200 C 330.000 353.420,329.640 353.600,329.200 353.600 C 328.760 353.600,328.400 353.747,328.400 353.926 C 328.400 354.509,318.792 359.045,315.600 359.970 C 314.610 360.257,313.440 360.647,313.000 360.838 C 311.838 361.343,308.847 362.053,307.000 362.263 C 306.120 362.363,305.040 362.595,304.600 362.778 C 301.913 363.894,292.739 363.999,200.182 363.977 C 101.639 363.952,103.941 363.986,94.000 362.423 C 90.973 361.947,88.275 361.228,87.820 360.777 C 87.611 360.570,87.024 360.400,86.515 360.400 C 86.006 360.400,85.277 360.238,84.895 360.041 C 84.513 359.844,83.390 359.375,82.400 358.999 C 79.668 357.962,70.800 353.458,70.800 353.108 C 70.800 352.939,70.621 352.800,70.401 352.800 C 68.647 352.800,58.492 344.133,53.997 338.800 C 52.791 337.370,51.713 336.110,51.600 336.000 C 50.936 335.351,49.200 332.791,49.200 332.460 C 49.200 332.244,49.065 332.007,48.900 331.933 C 48.570 331.787,46.400 328.547,46.400 328.201 C 46.400 328.082,45.950 327.271,45.400 326.400 C 44.850 325.529,44.400 324.542,44.400 324.208 C 44.400 323.874,44.220 323.600,44.000 323.600 C 43.780 323.600,43.600 323.425,43.600 323.211 C 43.600 322.997,43.161 321.872,42.624 320.711 C 41.779 318.883,41.135 317.055,39.195 310.979 C 38.588 309.077,37.979 306.094,37.485 302.600 C 36.848 298.098,36.840 102.781,37.476 98.200 C 37.721 96.440,38.219 93.830,38.584 92.400 C 38.949 90.970,39.346 89.213,39.468 88.496 C 39.589 87.779,39.849 87.094,40.044 86.973 C 40.240 86.852,40.400 86.410,40.400 85.990 C 40.400 85.570,40.695 84.546,41.055 83.714 C 41.416 82.881,41.850 81.840,42.020 81.400 C 43.193 78.363,47.350 70.551,48.521 69.184 C 48.894 68.748,49.200 68.293,49.200 68.174 C 49.200 66.049,66.049 49.200,68.174 49.200 C 68.293 49.200,68.748 48.894,69.184 48.521 C 70.551 47.350,78.363 43.193,81.400 42.020 C 81.840 41.850,82.881 41.416,83.714 41.055 C 84.546 40.695,85.570 40.400,85.990 40.400 C 86.410 40.400,86.852 40.240,86.973 40.044 C 87.094 39.849,87.779 39.589,88.496 39.468 C 89.213 39.346,90.970 38.949,92.400 38.584 C 93.830 38.219,96.408 37.776,98.130 37.598 C 99.851 37.420,101.367 37.166,101.499 37.034 C 101.940 36.593,299.983 37.062,303.000 37.511 M87.800 110.400 C 87.360 110.589,86.561 110.756,86.024 110.772 C 80.185 110.940,74.000 118.773,74.000 126.000 C 74.000 131.873,77.565 137.753,82.400 139.857 C 83.170 140.193,84.391 140.722,85.114 141.033 C 87.361 142.003,313.065 141.871,315.815 140.898 C 319.270 139.676,322.961 136.907,324.229 134.586 C 325.646 131.994,325.972 131.183,326.407 129.182 C 327.212 125.472,326.499 121.160,324.581 118.151 C 321.846 113.859,318.575 111.594,313.600 110.547 C 310.588 109.913,89.269 109.769,87.800 110.400 M85.200 185.172 C 84.870 185.350,83.752 185.874,82.715 186.336 C 79.363 187.828,75.636 191.877,75.021 194.695 C 74.866 195.408,74.572 196.094,74.369 196.219 C 73.879 196.522,73.893 203.818,74.386 204.705 C 74.598 205.087,75.143 206.256,75.597 207.302 C 77.245 211.101,81.545 214.477,86.106 215.551 C 87.491 215.877,118.640 216.000,200.082 216.000 C 310.540 216.000,316.140 215.943,317.200 214.813 C 317.310 214.696,318.116 214.240,318.990 213.800 C 325.723 210.413,328.899 199.377,324.945 193.113 C 324.425 192.290,324.000 191.512,324.000 191.384 C 324.000 190.643,320.446 187.560,318.495 186.609 C 317.233 185.993,315.887 185.334,315.505 185.145 C 314.623 184.707,86.010 184.734,85.200 185.172 M85.800 259.488 C 85.140 259.584,84.429 259.828,84.220 260.031 C 84.011 260.234,83.602 260.400,83.311 260.400 C 82.635 260.400,79.650 262.339,78.603 263.459 C 76.915 265.264,76.000 266.418,76.000 266.742 C 76.000 267.072,75.105 269.139,74.374 270.495 C 73.762 271.632,73.927 277.720,74.618 279.451 C 75.501 281.664,76.113 282.876,76.800 283.770 C 77.849 285.135,80.571 287.659,81.400 288.035 C 81.840 288.235,82.470 288.551,82.800 288.737 C 83.130 288.923,83.803 289.284,84.295 289.538 C 84.965 289.884,114.033 290.000,200.358 290.000 L 315.526 290.000 317.663 288.904 C 318.838 288.301,319.860 287.671,319.933 287.504 C 320.007 287.337,320.246 287.200,320.465 287.200 C 323.641 287.200,327.561 276.930,326.409 271.626 C 325.844 269.027,324.623 266.468,323.000 264.480 C 321.949 263.193,318.182 260.400,317.497 260.400 C 317.202 260.400,316.735 260.175,316.460 259.900 C 315.977 259.417,89.098 259.012,85.800 259.488 " stroke="none" fill="#6c5c54" fill-rule="evenodd"></path><path id="path1" d="M98.000 38.617 C 96.790 38.919,95.136 39.174,94.324 39.183 C 93.512 39.192,92.736 39.380,92.600 39.600 C 92.464 39.820,91.893 40.000,91.330 40.000 C 90.324 40.000,86.866 40.983,85.505 41.656 C 85.123 41.845,84.586 42.000,84.311 42.000 C 83.739 42.000,79.129 44.166,71.978 47.795 C 71.550 48.012,71.200 48.327,71.200 48.495 C 71.200 48.663,71.017 48.800,70.794 48.800 C 70.342 48.800,65.377 52.323,63.200 54.188 C 57.797 58.816,48.800 69.191,48.800 70.794 C 48.800 71.017,48.663 71.200,48.495 71.200 C 48.327 71.200,48.012 71.550,47.795 71.978 C 44.166 79.129,42.000 83.739,42.000 84.311 C 42.000 84.586,41.845 85.123,41.656 85.505 C 40.983 86.866,40.000 90.324,40.000 91.330 C 40.000 91.893,39.820 92.464,39.600 92.600 C 39.380 92.736,39.194 93.512,39.186 94.324 C 39.178 95.136,38.911 96.880,38.592 98.200 C 37.878 101.156,37.726 298.407,38.434 301.600 C 38.654 302.590,38.929 304.300,39.045 305.400 C 39.161 306.500,39.411 307.760,39.600 308.200 C 39.790 308.640,40.027 309.540,40.127 310.200 C 40.313 311.431,41.038 313.661,41.654 314.895 C 41.844 315.277,42.000 315.864,42.000 316.200 C 42.000 316.536,42.171 317.123,42.381 317.505 C 42.590 317.887,43.058 318.920,43.420 319.800 C 44.599 322.660,46.167 325.797,46.487 325.933 C 46.659 326.007,46.800 326.334,46.800 326.660 C 46.800 326.986,47.250 327.843,47.800 328.564 C 48.350 329.286,48.800 330.084,48.800 330.338 C 48.800 330.592,48.968 330.800,49.173 330.800 C 49.378 330.800,49.650 331.128,49.778 331.529 C 49.905 331.931,50.322 332.606,50.705 333.030 C 51.087 333.454,52.198 334.880,53.173 336.200 C 55.344 339.140,61.640 345.409,64.724 347.703 C 65.976 348.634,67.090 349.492,67.200 349.611 C 67.310 349.729,68.390 350.444,69.600 351.200 C 70.810 351.956,71.890 352.670,72.000 352.787 C 72.110 352.904,72.984 353.406,73.943 353.903 C 74.901 354.399,76.161 355.053,76.743 355.356 C 79.628 356.858,82.280 358.000,82.882 358.000 C 83.251 358.000,83.651 358.159,83.771 358.354 C 83.892 358.549,84.487 358.798,85.095 358.908 C 86.282 359.123,88.566 359.891,89.695 360.454 C 90.077 360.644,90.943 360.800,91.621 360.800 C 92.298 360.800,93.188 360.980,93.599 361.199 C 95.971 362.469,100.612 362.533,200.178 362.668 C 266.472 362.758,299.891 362.669,300.158 362.402 C 300.379 362.181,301.395 362.000,302.416 362.000 C 303.437 362.000,305.156 361.732,306.236 361.404 C 307.316 361.077,308.684 360.807,309.276 360.804 C 309.868 360.802,310.452 360.640,310.573 360.444 C 310.694 360.249,311.379 360.001,312.096 359.894 C 313.406 359.699,315.602 358.991,316.895 358.346 C 317.277 358.156,317.952 358.000,318.395 358.000 C 318.838 358.000,319.200 357.820,319.200 357.600 C 319.200 357.380,319.384 357.200,319.608 357.200 C 320.234 357.200,326.982 353.912,327.133 353.534 C 327.207 353.350,327.462 353.200,327.701 353.200 C 328.104 353.200,335.153 348.585,335.600 348.028 C 335.710 347.891,336.568 347.182,337.507 346.451 C 339.703 344.741,344.741 339.703,346.451 337.507 C 347.182 336.568,347.891 335.710,348.028 335.600 C 348.585 335.153,353.200 328.104,353.200 327.701 C 353.200 327.462,353.350 327.207,353.534 327.133 C 353.912 326.982,357.200 320.234,357.200 319.608 C 357.200 319.384,357.380 319.200,357.600 319.200 C 357.820 319.200,358.000 318.838,358.000 318.395 C 358.000 317.952,358.156 317.277,358.346 316.895 C 358.991 315.602,359.699 313.406,359.894 312.096 C 360.001 311.379,360.249 310.694,360.444 310.573 C 360.640 310.452,360.802 309.868,360.804 309.276 C 360.807 308.684,361.077 307.316,361.404 306.236 C 361.732 305.156,362.000 303.437,362.000 302.416 C 362.000 301.395,362.181 300.379,362.402 300.158 C 362.669 299.891,362.758 266.472,362.668 200.178 C 362.533 100.612,362.469 95.971,361.199 93.599 C 360.980 93.188,360.800 92.298,360.800 91.621 C 360.800 90.943,360.644 90.077,360.454 89.695 C 359.891 88.566,359.123 86.282,358.908 85.095 C 358.798 84.487,358.549 83.892,358.354 83.771 C 358.159 83.651,358.000 83.251,358.000 82.882 C 358.000 82.280,356.858 79.628,355.356 76.743 C 355.053 76.161,354.399 74.901,353.903 73.943 C 353.406 72.984,352.904 72.110,352.787 72.000 C 352.670 71.890,351.956 70.810,351.200 69.600 C 350.444 68.390,349.729 67.310,349.611 67.200 C 349.492 67.090,348.634 65.976,347.703 64.724 C 345.409 61.640,339.140 55.344,336.200 53.173 C 334.880 52.198,333.454 51.087,333.030 50.705 C 332.606 50.322,331.931 49.905,331.529 49.778 C 331.128 49.650,330.800 49.378,330.800 49.173 C 330.800 48.968,330.592 48.800,330.338 48.800 C 330.084 48.800,329.286 48.350,328.564 47.800 C 327.843 47.250,326.986 46.800,326.660 46.800 C 326.334 46.800,326.007 46.659,325.933 46.487 C 325.797 46.167,322.660 44.599,319.800 43.420 C 318.920 43.058,317.887 42.590,317.505 42.381 C 317.123 42.171,316.536 42.000,316.200 42.000 C 315.864 42.000,315.277 41.844,314.895 41.654 C 313.661 41.038,311.431 40.313,310.200 40.127 C 309.540 40.027,308.640 39.790,308.200 39.600 C 307.760 39.411,306.500 39.161,305.400 39.045 C 304.300 38.929,302.590 38.654,301.600 38.434 C 298.529 37.753,100.753 37.930,98.000 38.617 M315.660 109.900 C 315.935 110.175,316.486 110.400,316.885 110.400 C 318.736 110.400,323.949 114.605,325.261 117.154 C 325.557 117.729,325.889 118.290,325.999 118.400 C 328.018 120.413,328.127 128.914,326.185 132.950 C 323.985 137.524,319.410 141.260,314.800 142.247 C 312.970 142.639,87.430 142.639,85.600 142.247 C 81.032 141.269,74.409 135.622,74.402 132.700 C 74.401 132.315,74.243 132.000,74.052 132.000 C 73.861 132.000,73.565 131.145,73.395 130.100 C 72.815 126.530,73.234 120.000,74.042 120.000 C 74.239 120.000,74.400 119.628,74.400 119.173 C 74.400 117.393,80.215 111.200,81.887 111.200 C 82.169 111.200,82.400 111.020,82.400 110.800 C 82.400 110.580,82.904 110.400,83.520 110.400 C 84.136 110.400,84.811 110.237,85.020 110.039 C 85.229 109.840,85.760 109.590,86.200 109.483 C 88.224 108.992,315.164 109.404,315.660 109.900 M316.600 184.464 C 317.260 184.829,318.430 185.412,319.200 185.758 C 321.391 186.743,325.600 191.093,325.600 192.373 C 325.600 192.608,325.736 192.800,325.902 192.800 C 327.287 192.800,328.124 202.628,326.974 205.372 C 325.478 208.939,325.222 209.433,324.426 210.283 C 323.972 210.769,323.600 211.354,323.600 211.583 C 323.600 211.812,323.460 212.000,323.289 212.000 C 323.118 212.000,322.404 212.524,321.702 213.165 C 321.001 213.806,319.566 214.728,318.513 215.213 C 317.461 215.698,316.287 216.254,315.905 216.448 C 315.510 216.648,265.727 216.800,200.237 216.800 L 85.264 216.800 82.532 215.395 C 79.794 213.987,76.400 211.239,76.400 210.431 C 76.400 210.194,76.261 210.000,76.091 210.000 C 75.579 210.000,73.986 206.505,73.244 203.754 C 72.504 201.009,72.878 196.608,74.047 194.305 C 74.241 193.923,74.400 193.421,74.400 193.188 C 74.400 191.854,79.903 186.000,81.158 186.000 C 81.401 186.000,81.600 185.820,81.600 185.600 C 81.600 185.380,81.924 185.200,82.320 185.200 C 82.716 185.200,83.224 185.016,83.449 184.791 C 84.474 183.766,93.475 183.686,201.400 183.741 C 306.814 183.796,315.490 183.850,316.600 184.464 M315.000 258.400 C 315.136 258.620,315.614 258.800,316.062 258.800 C 316.905 258.800,319.299 259.972,319.533 260.500 C 319.607 260.665,319.881 260.800,320.142 260.800 C 321.330 260.800,324.464 264.403,326.034 267.573 L 327.669 270.873 327.519 275.136 C 327.245 282.931,322.789 288.721,315.372 290.917 C 313.092 291.593,88.980 291.827,86.400 291.157 C 80.839 289.712,74.400 284.481,74.400 281.408 C 74.400 281.074,74.239 280.800,74.042 280.800 C 73.309 280.800,72.496 272.544,73.164 271.876 C 73.404 271.636,73.600 270.934,73.600 270.315 C 73.600 269.696,73.754 268.877,73.943 268.495 C 75.331 265.683,75.972 264.765,77.781 263.000 C 79.587 261.238,81.896 259.827,85.200 258.466 C 86.572 257.901,314.651 257.836,315.000 258.400 " stroke="none" fill="#e3d3cb" fill-rule="evenodd"></path><path id="path2" d="M151.500 37.500 C 178.395 37.557,222.405 37.557,249.300 37.500 C 276.195 37.443,254.190 37.397,200.400 37.397 C 146.610 37.397,124.605 37.443,151.500 37.500 M99.305 37.887 C 99.914 37.979,100.814 37.977,101.305 37.882 C 101.797 37.787,101.300 37.711,100.200 37.714 C 99.100 37.717,98.697 37.795,99.305 37.887 M299.100 37.882 C 299.595 37.978,300.405 37.978,300.900 37.882 C 301.395 37.787,300.990 37.709,300.000 37.709 C 299.010 37.709,298.605 37.787,299.100 37.882 M95.000 38.419 C 94.442 38.671,94.685 38.707,95.800 38.538 C 96.680 38.404,97.475 38.228,97.567 38.147 C 97.910 37.844,95.768 38.071,95.000 38.419 M304.200 38.400 C 304.640 38.589,305.360 38.738,305.800 38.732 C 306.443 38.723,306.404 38.657,305.600 38.400 C 304.232 37.962,303.181 37.962,304.200 38.400 M91.200 39.218 C 90.762 39.515,90.924 39.552,91.800 39.356 C 93.271 39.027,93.590 38.798,92.567 38.806 C 92.145 38.809,91.530 38.995,91.200 39.218 M317.946 42.216 C 318.686 42.537,319.406 42.794,319.546 42.786 C 320.066 42.757,317.776 41.628,317.200 41.630 C 316.870 41.631,317.206 41.894,317.946 42.216 M322.546 44.202 C 324.005 44.963,324.375 44.968,323.376 44.213 C 322.949 43.890,322.330 43.621,322.000 43.615 C 321.670 43.610,321.916 43.874,322.546 44.202 M327.233 46.537 C 327.973 47.145,333.200 50.340,333.200 50.184 C 333.200 49.928,327.758 46.400,327.363 46.400 C 327.200 46.400,327.142 46.462,327.233 46.537 M333.600 50.546 C 333.600 50.656,334.140 51.130,334.800 51.600 C 335.460 52.070,336.000 52.364,336.000 52.254 C 336.000 52.144,335.460 51.670,334.800 51.200 C 334.140 50.730,333.600 50.436,333.600 50.546 M62.351 54.031 L 60.600 55.662 62.500 54.146 C 63.545 53.313,64.400 52.579,64.400 52.515 C 64.400 52.207,63.963 52.530,62.351 54.031 M340.181 55.923 C 341.051 56.845,341.810 57.600,341.869 57.600 C 342.278 57.600,341.287 56.405,340.065 55.423 L 338.600 54.246 340.181 55.923 M344.185 59.978 C 345.277 61.090,346.245 62.000,346.337 62.000 C 346.676 62.000,343.379 58.479,342.800 58.222 C 342.470 58.076,343.093 58.866,344.185 59.978 M54.355 61.900 C 53.081 63.308,52.256 64.400,52.466 64.400 C 52.557 64.400,53.308 63.590,54.135 62.600 C 55.787 60.624,55.935 60.153,54.355 61.900 M349.200 66.000 C 349.670 66.660,350.144 67.200,350.254 67.200 C 350.364 67.200,350.070 66.660,349.600 66.000 C 349.130 65.340,348.656 64.800,348.546 64.800 C 348.436 64.800,348.730 65.340,349.200 66.000 M352.896 71.568 C 353.612 72.650,354.261 73.473,354.338 73.396 C 354.500 73.233,352.050 69.600,351.778 69.600 C 351.677 69.600,352.180 70.485,352.896 71.568 M39.049 91.415 C 38.912 91.773,38.815 92.366,38.834 92.733 C 38.853 93.100,39.027 92.869,39.221 92.220 C 39.598 90.958,39.465 90.333,39.049 91.415 M361.206 91.833 C 361.209 92.255,361.395 92.870,361.618 93.200 C 361.915 93.638,361.952 93.476,361.756 92.600 C 361.427 91.129,361.198 90.810,361.206 91.833 M38.256 95.284 C 38.121 95.788,38.027 96.560,38.046 97.000 C 38.065 97.440,38.245 97.098,38.446 96.240 C 38.836 94.578,38.670 93.740,38.256 95.284 M37.714 100.200 C 37.717 101.300,37.795 101.703,37.887 101.095 C 37.979 100.486,37.977 99.586,37.882 99.095 C 37.787 98.603,37.711 99.100,37.714 100.200 M362.920 101.200 C 362.920 102.410,362.995 102.905,363.087 102.300 C 363.178 101.695,363.178 100.705,363.087 100.100 C 362.995 99.495,362.920 99.990,362.920 101.200 M37.397 200.400 C 37.397 254.190,37.443 276.195,37.500 249.300 C 37.557 222.405,37.557 178.395,37.500 151.500 C 37.443 124.605,37.397 146.610,37.397 200.400 M86.046 109.963 C 85.707 110.178,86.251 110.232,87.446 110.104 C 88.521 109.988,89.475 109.828,89.567 109.747 C 89.929 109.428,86.565 109.635,86.046 109.963 M311.905 109.883 C 312.402 109.979,313.122 109.975,313.505 109.875 C 313.887 109.775,313.480 109.696,312.600 109.701 C 311.720 109.705,311.407 109.787,311.905 109.883 M80.200 112.635 L 79.000 113.666 80.400 112.763 C 82.196 111.604,82.201 111.600,81.767 111.602 C 81.565 111.603,80.860 112.068,80.200 112.635 M322.069 114.470 C 323.241 115.641,324.278 116.552,324.374 116.493 C 324.624 116.339,321.540 113.213,320.669 112.738 C 320.267 112.518,320.897 113.298,322.069 114.470 M325.524 119.000 C 325.726 119.440,325.992 120.070,326.114 120.400 C 326.307 120.918,326.341 120.915,326.368 120.376 C 326.386 120.034,326.120 119.404,325.778 118.976 C 325.166 118.212,325.162 118.213,325.524 119.000 M326.644 122.200 C 326.973 123.671,327.202 123.990,327.194 122.967 C 327.191 122.545,327.005 121.930,326.782 121.600 C 326.485 121.162,326.448 121.324,326.644 122.200 M326.846 128.867 C 326.821 129.234,326.696 129.864,326.570 130.267 C 326.352 130.962,326.363 130.963,326.797 130.287 C 327.048 129.896,327.173 129.266,327.073 128.887 C 326.911 128.268,326.888 128.266,326.846 128.867 M76.028 134.984 C 76.545 135.925,77.999 137.682,77.989 137.354 C 77.983 137.159,77.488 136.453,76.889 135.784 C 76.290 135.116,75.903 134.756,76.028 134.984 M78.598 137.996 C 78.915 138.509,82.418 140.919,82.583 140.739 C 82.653 140.662,81.731 139.926,80.533 139.102 C 79.335 138.278,78.464 137.780,78.598 137.996 M86.100 141.876 C 86.485 141.976,87.115 141.976,87.500 141.876 C 87.885 141.775,87.570 141.693,86.800 141.693 C 86.030 141.693,85.715 141.775,86.100 141.876 M143.900 184.300 C 174.975 184.357,225.825 184.357,256.900 184.300 C 287.975 184.243,262.550 184.197,200.400 184.197 C 138.250 184.197,112.825 184.243,143.900 184.300 M78.000 189.000 C 77.028 189.990,76.323 190.800,76.433 190.800 C 76.543 190.800,77.428 189.990,78.400 189.000 C 79.372 188.010,80.077 187.200,79.967 187.200 C 79.857 187.200,78.972 188.010,78.000 189.000 M322.472 189.037 C 323.485 190.158,324.608 191.643,324.967 192.337 C 325.327 193.032,325.717 193.600,325.836 193.600 C 326.396 193.600,324.080 190.260,322.455 188.725 L 320.629 187.000 322.472 189.037 M326.644 196.600 C 326.973 198.071,327.202 198.390,327.194 197.367 C 327.191 196.945,327.005 196.330,326.782 196.000 C 326.485 195.562,326.448 195.724,326.644 196.600 M75.634 208.775 C 76.121 209.642,77.341 211.127,78.345 212.075 L 80.171 213.800 78.328 211.763 C 77.315 210.642,76.192 209.157,75.833 208.463 C 75.473 207.768,75.083 207.200,74.964 207.200 C 74.846 207.200,75.147 207.909,75.634 208.775 M319.611 213.820 C 318.847 214.359,318.397 214.799,318.611 214.798 C 318.825 214.797,319.540 214.353,320.200 213.812 C 321.741 212.549,321.405 212.553,319.611 213.820 M144.300 216.700 C 175.155 216.757,225.645 216.757,256.500 216.700 C 287.355 216.643,262.110 216.597,200.400 216.597 C 138.690 216.597,113.445 216.643,144.300 216.700 M86.000 258.800 C 85.208 259.054,85.167 259.120,85.800 259.120 C 86.240 259.120,87.050 258.976,87.600 258.800 C 88.392 258.546,88.433 258.480,87.800 258.480 C 87.360 258.480,86.550 258.624,86.000 258.800 M313.200 258.800 C 314.568 259.238,315.619 259.238,314.600 258.800 C 314.160 258.611,313.440 258.462,313.000 258.468 C 312.357 258.477,312.396 258.543,313.200 258.800 M318.033 260.130 C 318.125 260.201,318.830 260.666,319.600 261.163 L 321.000 262.066 319.800 261.035 C 319.140 260.468,318.435 260.003,318.233 260.002 C 318.032 260.001,317.942 260.058,318.033 260.130 M78.785 262.429 L 77.400 263.658 78.900 262.581 C 80.226 261.630,80.657 261.200,80.285 261.200 C 80.222 261.200,79.547 261.753,78.785 262.429 M322.600 263.600 C 323.459 264.480,324.252 265.200,324.362 265.200 C 324.472 265.200,323.859 264.480,323.000 263.600 C 322.141 262.720,321.348 262.000,321.238 262.000 C 321.128 262.000,321.741 262.720,322.600 263.600 M325.214 266.854 C 325.206 266.994,325.463 267.714,325.784 268.454 C 326.106 269.194,326.369 269.530,326.370 269.200 C 326.372 268.624,325.243 266.334,325.214 266.854 M326.644 271.000 C 326.973 272.471,327.202 272.790,327.194 271.767 C 327.191 271.345,327.005 270.730,326.782 270.400 C 326.485 269.962,326.448 270.124,326.644 271.000 M326.629 278.229 C 326.481 278.815,326.438 279.372,326.532 279.466 C 326.627 279.560,326.824 279.158,326.971 278.571 C 327.119 277.985,327.162 277.428,327.068 277.334 C 326.973 277.240,326.776 277.642,326.629 278.229 M74.800 281.735 C 74.800 282.325,77.104 285.386,78.460 286.597 L 79.800 287.795 78.354 286.197 C 77.559 285.319,76.434 283.883,75.854 283.007 C 75.274 282.131,74.800 281.559,74.800 281.735 M323.347 284.917 C 322.242 286.188,321.765 286.993,322.320 286.650 C 322.797 286.355,324.556 284.000,324.299 284.000 C 324.214 284.000,323.786 284.412,323.347 284.917 M87.115 290.872 C 88.047 291.242,312.881 291.264,313.462 290.894 C 313.716 290.732,262.737 290.600,200.177 290.600 C 137.616 290.600,86.738 290.722,87.115 290.872 M362.920 299.600 C 362.920 300.810,362.995 301.305,363.087 300.700 C 363.178 300.095,363.178 299.105,363.087 298.500 C 362.995 297.895,362.920 298.390,362.920 299.600 M37.709 300.000 C 37.709 300.990,37.787 301.395,37.882 300.900 C 37.978 300.405,37.978 299.595,37.882 299.100 C 37.787 298.605,37.709 299.010,37.709 300.000 M38.068 304.000 C 38.088 305.039,38.718 306.746,38.732 305.800 C 38.738 305.360,38.589 304.640,38.400 304.200 C 38.189 303.710,38.061 303.632,38.068 304.000 M41.630 317.200 C 41.628 317.776,42.757 320.066,42.786 319.546 C 42.794 319.406,42.537 318.686,42.216 317.946 C 41.894 317.206,41.631 316.870,41.630 317.200 M43.615 322.000 C 43.621 322.330,43.890 322.949,44.213 323.376 C 44.968 324.375,44.963 324.005,44.202 322.546 C 43.874 321.916,43.610 321.670,43.615 322.000 M46.400 327.363 C 46.400 327.758,49.928 333.200,50.184 333.200 C 50.294 333.200,49.549 331.895,48.529 330.300 C 46.392 326.959,46.400 326.970,46.400 327.363 M51.200 334.800 C 51.670 335.460,52.144 336.000,52.254 336.000 C 52.364 336.000,52.070 335.460,51.600 334.800 C 51.130 334.140,50.656 333.600,50.546 333.600 C 50.436 333.600,50.730 334.140,51.200 334.800 M346.955 337.481 C 346.107 338.516,345.622 339.234,345.877 339.076 C 346.421 338.740,348.955 335.600,348.682 335.600 C 348.580 335.600,347.803 336.447,346.955 337.481 M55.461 340.165 C 56.087 340.916,56.870 341.647,57.200 341.789 C 57.530 341.931,57.088 341.316,56.219 340.423 C 54.290 338.443,53.918 338.316,55.461 340.165 M58.257 342.900 C 58.384 343.175,59.324 344.112,60.344 344.983 L 62.200 346.566 60.215 344.483 C 58.122 342.286,57.883 342.093,58.257 342.900 M337.200 347.254 L 335.400 348.885 337.094 347.613 C 338.568 346.507,339.514 345.574,339.124 345.612 C 339.056 345.619,338.190 346.358,337.200 347.254 M64.800 348.546 C 64.800 348.656,65.340 349.130,66.000 349.600 C 66.660 350.070,67.200 350.364,67.200 350.254 C 67.200 350.144,66.660 349.670,66.000 349.200 C 65.340 348.730,64.800 348.436,64.800 348.546 M69.600 351.778 C 69.600 352.050,73.233 354.500,73.396 354.338 C 73.473 354.261,72.650 353.612,71.568 352.896 C 70.485 352.180,69.600 351.677,69.600 351.778 M91.233 361.344 C 91.325 361.423,91.940 361.608,92.600 361.756 C 93.476 361.952,93.638 361.915,93.200 361.618 C 92.660 361.253,90.832 360.998,91.233 361.344 M100.100 363.087 C 100.705 363.178,101.695 363.178,102.300 363.087 C 102.905 362.995,102.410 362.920,101.200 362.920 C 99.990 362.920,99.495 362.995,100.100 363.087 M298.500 363.087 C 299.105 363.178,300.095 363.178,300.700 363.087 C 301.305 362.995,300.810 362.920,299.600 362.920 C 298.390 362.920,297.895 362.995,298.500 363.087 " stroke="none" fill="#ac948c" fill-rule="evenodd"></path><path id="path3" d="M100.876 37.140 C 100.368 37.283,145.154 37.400,200.400 37.400 C 255.646 37.400,300.432 37.283,299.924 37.140 C 299.416 36.997,254.630 36.880,200.400 36.880 C 146.170 36.880,101.384 36.997,100.876 37.140 M95.071 37.862 C 94.927 38.006,94.132 38.271,93.304 38.449 C 91.928 38.746,91.953 38.755,93.600 38.556 C 94.590 38.436,96.120 38.195,97.000 38.019 L 98.600 37.700 96.967 37.650 C 96.068 37.623,95.215 37.718,95.071 37.862 M302.600 37.859 C 303.786 38.039,308.462 38.977,310.400 39.424 C 311.142 39.596,311.245 39.554,310.800 39.264 C 309.945 38.706,306.181 37.940,303.600 37.798 C 302.390 37.732,301.940 37.759,302.600 37.859 M90.000 39.200 C 89.467 39.545,89.467 39.588,90.000 39.588 C 90.330 39.588,90.870 39.413,91.200 39.200 C 91.733 38.855,91.733 38.812,91.200 38.812 C 90.870 38.812,90.330 38.987,90.000 39.200 M87.000 40.000 C 86.864 40.220,86.358 40.406,85.876 40.414 C 84.787 40.432,82.660 41.565,83.676 41.586 C 84.048 41.594,84.464 41.420,84.600 41.200 C 84.736 40.980,85.176 40.800,85.578 40.800 C 86.725 40.800,89.228 39.635,88.124 39.616 C 87.642 39.607,87.136 39.780,87.000 40.000 M312.033 39.749 C 312.436 40.108,317.279 41.654,317.454 41.479 C 317.561 41.372,316.475 40.906,315.041 40.442 C 312.525 39.630,311.682 39.435,312.033 39.749 M81.200 41.977 C 80.870 42.159,80.105 42.538,79.501 42.821 C 78.896 43.103,78.468 43.401,78.549 43.482 C 78.630 43.563,79.665 43.188,80.848 42.648 C 82.032 42.108,82.730 41.661,82.400 41.656 C 82.070 41.651,81.530 41.796,81.200 41.977 M319.775 42.621 C 320.861 43.159,321.941 43.591,322.175 43.579 C 322.409 43.567,321.711 43.117,320.625 42.579 C 319.539 42.041,318.459 41.609,318.225 41.621 C 317.991 41.633,318.689 42.083,319.775 42.621 M74.866 44.993 C 74.353 45.276,73.723 45.725,73.466 45.991 C 73.071 46.402,75.887 45.009,76.367 44.557 C 76.722 44.223,75.754 44.504,74.866 44.993 M324.400 44.689 C 324.730 44.813,325.505 45.268,326.123 45.701 C 326.741 46.133,327.333 46.400,327.440 46.293 C 327.695 46.039,324.895 44.391,324.277 44.432 C 324.015 44.449,324.070 44.565,324.400 44.689 M70.500 47.526 C 69.565 48.112,68.800 48.737,68.800 48.915 C 68.800 49.161,71.600 47.481,72.767 46.535 C 73.460 45.973,71.872 46.667,70.500 47.526 M328.000 46.507 C 328.000 46.602,328.900 47.240,330.000 47.924 C 331.100 48.607,331.999 49.039,331.997 48.883 C 331.995 48.728,331.230 48.150,330.297 47.600 C 328.281 46.412,328.000 46.278,328.000 46.507 M64.902 51.424 C 59.731 55.315,48.479 67.413,49.283 68.217 C 49.370 68.304,50.456 66.980,51.696 65.275 C 54.540 61.364,60.888 54.972,64.800 52.078 C 68.463 49.368,68.669 49.194,68.180 49.222 C 67.971 49.234,66.496 50.225,64.902 51.424 M333.367 50.122 C 339.017 54.373,344.378 59.328,346.869 62.600 C 347.372 63.260,348.012 64.038,348.293 64.330 C 348.573 64.621,349.351 65.656,350.021 66.630 C 350.690 67.603,351.337 68.400,351.457 68.400 C 352.711 68.400,343.635 58.072,338.800 53.997 C 337.370 52.791,336.110 51.713,336.000 51.600 C 335.384 50.970,332.804 49.203,332.527 49.222 C 332.347 49.234,332.725 49.639,333.367 50.122 M47.478 70.648 C 45.974 73.138,46.279 73.223,47.904 70.768 C 48.620 69.685,49.068 68.800,48.900 68.800 C 48.732 68.800,48.092 69.631,47.478 70.648 M351.600 69.102 C 351.600 69.322,351.870 69.726,352.200 70.000 C 352.535 70.278,352.800 70.321,352.800 70.098 C 352.800 69.878,352.530 69.474,352.200 69.200 C 351.865 68.922,351.600 68.879,351.600 69.102 M353.437 71.800 C 353.797 72.350,354.157 72.800,354.237 72.800 C 354.317 72.800,354.178 72.350,353.927 71.800 C 353.677 71.250,353.316 70.800,353.127 70.800 C 352.937 70.800,353.076 71.250,353.437 71.800 M45.726 73.700 C 45.019 74.799,44.393 76.127,44.521 76.255 C 44.596 76.329,45.040 75.672,45.508 74.795 C 46.303 73.307,46.447 72.578,45.726 73.700 M356.400 77.325 C 356.400 77.711,358.361 81.328,358.379 80.975 C 358.404 80.461,356.860 77.200,356.591 77.200 C 356.486 77.200,356.400 77.256,356.400 77.325 M42.921 79.301 C 42.693 79.795,42.273 80.695,41.986 81.299 C 41.700 81.904,41.560 82.493,41.675 82.609 C 41.791 82.724,42.273 81.886,42.747 80.747 C 43.592 78.714,43.734 77.534,42.921 79.301 M358.622 82.200 C 359.726 85.717,360.183 86.850,360.327 86.420 C 360.491 85.928,360.362 85.566,359.040 82.800 C 358.672 82.030,358.484 81.760,358.622 82.200 M40.865 84.217 C 40.609 84.778,40.400 85.553,40.400 85.939 C 40.400 86.324,40.203 86.837,39.962 87.078 C 39.722 87.318,39.589 87.847,39.667 88.253 C 39.756 88.713,40.013 88.315,40.350 87.195 C 40.648 86.208,41.081 84.995,41.313 84.501 C 41.545 84.006,41.644 83.510,41.532 83.399 C 41.421 83.288,41.121 83.656,40.865 84.217 M360.590 88.200 C 360.759 88.640,361.231 90.350,361.638 92.000 C 362.094 93.842,362.322 94.382,362.230 93.400 C 362.023 91.179,361.240 88.279,360.718 87.800 C 360.409 87.516,360.372 87.633,360.590 88.200 M39.000 90.400 C 38.850 90.873,38.817 91.350,38.927 91.460 C 39.037 91.570,39.250 91.273,39.400 90.800 C 39.550 90.327,39.583 89.850,39.473 89.740 C 39.363 89.630,39.150 89.927,39.000 90.400 M38.242 93.400 C 37.909 95.311,37.566 98.944,37.827 97.800 C 38.664 94.134,38.876 92.830,38.712 92.353 C 38.607 92.049,38.396 92.520,38.242 93.400 M362.638 97.400 C 362.970 99.384,363.202 99.704,363.194 98.167 C 363.191 97.525,363.004 96.730,362.779 96.400 C 362.486 95.970,362.446 96.254,362.638 97.400 M37.050 101.250 C 36.717 102.914,36.806 298.738,37.140 299.924 C 37.283 300.432,37.400 255.657,37.400 200.424 C 37.400 145.191,37.377 100.000,37.350 100.000 C 37.323 100.000,37.188 100.563,37.050 101.250 M363.310 200.400 C 363.308 255.290,363.447 299.300,363.618 298.200 C 364.021 295.618,364.019 105.710,363.617 102.800 C 363.449 101.590,363.311 145.510,363.310 200.400 M144.900 109.900 C 175.425 109.957,225.375 109.957,255.900 109.900 C 286.425 109.843,261.450 109.797,200.400 109.797 C 139.350 109.797,114.375 109.843,144.900 109.900 M85.800 110.400 C 85.071 110.713,85.088 110.744,86.000 110.744 C 86.550 110.744,87.360 110.589,87.800 110.400 C 88.529 110.087,88.512 110.056,87.600 110.056 C 87.050 110.056,86.240 110.211,85.800 110.400 M312.800 110.400 C 314.267 110.870,316.094 110.870,315.000 110.400 C 314.560 110.211,313.660 110.062,313.000 110.068 C 311.830 110.079,311.825 110.088,312.800 110.400 M81.234 112.300 C 77.889 114.269,73.888 119.728,74.027 122.133 C 74.042 122.390,74.252 122.150,74.495 121.600 C 74.737 121.050,75.209 119.970,75.544 119.200 C 76.973 115.916,78.985 113.862,82.541 112.053 C 83.894 111.366,84.726 110.802,84.391 110.802 C 84.056 110.801,82.635 111.475,81.234 112.300 M317.699 111.784 C 320.746 113.297,322.473 114.990,325.514 119.447 C 325.797 119.861,325.534 119.237,324.929 118.061 C 323.379 115.043,318.218 110.732,316.262 110.821 C 316.008 110.833,316.654 111.266,317.699 111.784 M326.034 121.400 C 326.022 121.840,326.187 122.470,326.400 122.800 C 326.914 123.595,326.914 122.596,326.400 121.400 L 326.056 120.600 326.034 121.400 M73.731 125.800 C 73.733 127.340,73.805 127.921,73.892 127.091 C 73.979 126.261,73.977 125.001,73.889 124.291 C 73.800 123.581,73.729 124.260,73.731 125.800 M326.729 126.200 C 326.580 127.740,326.358 129.540,326.236 130.200 C 326.113 130.860,326.285 130.590,326.617 129.600 C 326.949 128.610,327.171 126.810,327.111 125.600 L 327.000 123.400 326.729 126.200 M74.027 129.889 C 73.989 130.580,75.828 134.647,76.316 134.948 C 76.539 135.086,76.316 134.344,75.821 133.299 C 75.326 132.255,74.726 130.950,74.488 130.400 C 74.249 129.850,74.042 129.620,74.027 129.889 M324.823 133.450 C 324.353 134.248,324.033 134.966,324.113 135.046 C 324.192 135.126,324.661 134.473,325.154 133.596 C 326.275 131.602,325.988 131.477,324.823 133.450 M77.427 136.442 C 77.843 137.015,78.907 137.985,79.792 138.597 L 81.400 139.711 80.200 138.590 C 79.540 137.973,78.476 137.003,77.835 136.434 L 76.670 135.400 77.427 136.442 M322.200 136.932 C 320.636 138.589,318.236 140.098,316.046 140.801 C 315.081 141.110,314.514 141.438,314.785 141.528 C 315.057 141.619,315.756 141.467,316.339 141.190 C 316.923 140.914,318.012 140.398,318.760 140.044 C 320.193 139.365,324.485 135.620,323.800 135.646 C 323.580 135.654,322.860 136.233,322.200 136.932 M81.600 139.814 C 81.600 140.150,85.277 141.641,85.731 141.490 C 85.955 141.415,85.522 141.124,84.769 140.844 C 84.016 140.563,83.087 140.168,82.705 139.967 C 81.914 139.549,81.600 139.506,81.600 139.814 M144.332 141.900 C 175.425 141.957,226.185 141.957,257.132 141.900 C 288.080 141.843,262.640 141.797,200.600 141.797 C 138.560 141.797,113.240 141.843,144.332 141.900 M143.132 184.700 C 174.665 184.756,226.145 184.756,257.532 184.700 C 288.920 184.643,263.120 184.597,200.200 184.597 C 137.280 184.597,111.600 184.643,143.132 184.700 M83.800 185.289 C 81.340 186.161,76.926 189.919,75.683 192.200 C 74.831 193.765,73.990 196.123,74.207 196.340 C 74.395 196.528,75.200 194.587,75.200 193.946 C 75.200 191.812,82.167 185.600,84.560 185.600 C 84.886 185.600,85.264 185.420,85.400 185.200 C 85.700 184.714,85.368 184.733,83.800 185.289 M317.200 185.737 C 317.200 185.813,318.019 186.295,319.019 186.810 C 320.020 187.324,321.459 188.433,322.218 189.273 C 322.977 190.113,323.724 190.800,323.877 190.800 C 324.031 190.800,323.537 190.147,322.778 189.348 C 320.948 187.420,317.200 184.994,317.200 185.737 M324.000 191.377 C 324.000 191.771,325.711 194.422,325.866 194.267 C 325.958 194.176,325.647 193.448,325.177 192.650 C 324.400 191.333,324.000 190.901,324.000 191.377 M326.262 196.400 C 326.393 197.170,326.501 198.970,326.501 200.400 C 326.501 201.830,326.393 203.630,326.262 204.400 C 326.026 205.781,326.031 205.778,326.581 204.200 C 326.888 203.320,327.139 201.610,327.139 200.400 C 327.139 199.190,326.888 197.480,326.581 196.600 C 326.031 195.022,326.026 195.019,326.262 196.400 M73.734 200.400 C 73.734 202.050,73.805 202.725,73.891 201.900 C 73.978 201.075,73.978 199.725,73.891 198.900 C 73.805 198.075,73.734 198.750,73.734 200.400 M74.000 204.581 C 74.000 205.035,75.707 208.427,75.858 208.275 C 75.944 208.189,75.742 207.597,75.410 206.960 C 75.077 206.322,74.804 205.586,74.802 205.324 C 74.801 205.062,74.620 204.736,74.400 204.600 C 74.180 204.464,74.000 204.455,74.000 204.581 M324.808 207.866 C 323.522 210.292,320.964 212.871,318.898 213.825 C 317.975 214.251,317.216 214.747,317.210 214.926 C 317.195 215.406,320.249 213.606,322.018 212.092 C 323.425 210.888,326.296 206.563,325.931 206.198 C 325.846 206.112,325.341 206.863,324.808 207.866 M76.718 209.873 C 77.818 211.432,81.148 214.409,81.756 214.376 C 82.000 214.364,81.842 214.139,81.405 213.876 C 80.967 213.614,79.532 212.320,78.214 211.000 C 76.897 209.680,76.224 209.173,76.718 209.873 M85.663 215.794 C 88.141 216.603,313.225 216.505,315.600 215.694 C 316.982 215.221,316.977 215.219,315.200 215.508 C 312.805 215.897,87.455 215.879,85.400 215.489 C 83.860 215.197,83.870 215.209,85.663 215.794 M86.371 258.992 C 84.011 259.509,82.078 260.365,83.220 260.388 C 83.561 260.395,84.065 260.175,84.340 259.900 C 84.738 259.502,108.485 259.400,200.400 259.400 C 292.315 259.400,316.062 259.502,316.460 259.900 C 316.735 260.175,317.239 260.395,317.580 260.388 C 318.827 260.363,316.752 259.520,314.057 258.956 C 310.376 258.186,89.892 258.221,86.371 258.992 M80.600 261.423 C 79.940 261.984,79.760 262.266,80.200 262.050 C 81.384 261.470,82.660 260.427,82.200 260.415 C 81.980 260.409,81.260 260.863,80.600 261.423 M319.394 261.282 C 321.590 262.970,323.822 265.385,324.615 266.933 C 325.601 268.859,326.082 269.208,325.466 267.551 C 324.825 265.827,322.288 263.023,320.057 261.572 C 319.036 260.908,318.737 260.778,319.394 261.282 M77.450 264.050 C 76.655 264.979,76.098 265.831,76.212 265.945 C 76.325 266.059,76.700 265.750,77.043 265.260 C 77.387 264.769,78.044 264.017,78.505 263.588 C 78.965 263.159,79.241 262.708,79.118 262.585 C 78.996 262.462,78.245 263.121,77.450 264.050 M74.853 268.453 C 74.380 269.593,74.079 270.612,74.185 270.718 C 74.291 270.824,74.566 270.391,74.797 269.755 C 75.028 269.120,75.423 268.195,75.676 267.701 C 75.928 267.206,76.040 266.707,75.925 266.591 C 75.809 266.476,75.327 267.314,74.853 268.453 M326.290 270.800 C 326.622 272.485,326.598 276.863,326.246 278.800 C 326.040 279.935,326.105 279.859,326.590 278.400 C 327.327 276.181,327.321 273.121,326.576 271.000 C 326.038 269.467,326.026 269.458,326.290 270.800 M73.734 274.800 C 73.734 276.450,73.805 277.125,73.891 276.300 C 73.978 275.475,73.978 274.125,73.891 273.300 C 73.805 272.475,73.734 273.150,73.734 274.800 M74.027 278.667 C 73.988 279.332,75.582 282.952,75.812 282.722 C 75.917 282.616,75.762 282.006,75.466 281.365 C 75.170 280.724,74.731 279.750,74.491 279.200 C 74.251 278.650,74.042 278.410,74.027 278.667 M324.092 283.429 C 323.597 284.183,323.272 284.800,323.369 284.800 C 323.647 284.800,325.304 282.371,325.139 282.206 C 325.057 282.124,324.586 282.674,324.092 283.429 M76.767 284.353 C 77.842 285.864,80.084 287.816,81.705 288.654 C 82.900 289.272,82.958 289.273,82.451 288.662 C 82.149 288.298,81.688 288.000,81.427 288.000 C 80.845 288.000,76.800 284.153,76.800 283.599 C 76.800 283.379,76.608 283.200,76.373 283.200 C 76.138 283.200,76.315 283.719,76.767 284.353 M321.860 286.038 C 321.466 286.499,321.214 286.948,321.302 287.035 C 321.389 287.123,321.851 286.745,322.328 286.197 C 322.805 285.649,323.056 285.200,322.886 285.200 C 322.717 285.200,322.255 285.577,321.860 286.038 M320.000 287.502 C 320.000 287.669,319.450 288.048,318.777 288.346 C 318.104 288.644,317.638 288.971,317.740 289.073 C 317.979 289.312,320.271 288.133,320.598 287.603 C 320.735 287.381,320.657 287.200,320.424 287.200 C 320.191 287.200,320.000 287.336,320.000 287.502 M86.600 290.400 C 87.260 290.568,138.470 290.705,200.400 290.705 C 262.330 290.705,313.540 290.568,314.200 290.400 C 314.860 290.232,263.650 290.095,200.400 290.095 C 137.150 290.095,85.940 290.232,86.600 290.400 M37.798 303.600 C 37.940 306.181,38.706 309.945,39.264 310.800 C 39.554 311.245,39.596 311.142,39.424 310.400 C 38.977 308.462,38.039 303.786,37.859 302.600 C 37.759 301.940,37.732 302.390,37.798 303.600 M362.859 302.200 C 362.820 302.640,362.677 303.450,362.540 304.000 C 362.348 304.770,362.402 304.897,362.775 304.551 C 363.044 304.301,363.185 303.503,363.093 302.751 C 363.002 302.008,362.897 301.760,362.859 302.200 M361.529 308.623 C 361.161 310.150,360.727 311.833,360.566 312.363 C 360.375 312.994,360.418 313.236,360.692 313.067 C 360.921 312.925,361.227 312.132,361.371 311.304 C 361.515 310.477,361.820 309.322,362.049 308.738 C 362.278 308.154,362.406 307.264,362.333 306.761 C 362.252 306.203,361.938 306.930,361.529 308.623 M39.600 312.150 C 39.600 312.822,41.303 317.630,41.479 317.454 C 41.586 317.347,41.274 316.121,40.785 314.730 C 39.922 312.269,39.600 311.569,39.600 312.150 M359.560 315.661 C 359.288 316.617,358.915 317.571,358.733 317.780 C 358.550 317.989,358.405 318.439,358.412 318.780 C 358.423 319.332,358.465 319.331,358.794 318.769 C 359.407 317.721,360.472 314.338,360.256 314.123 C 360.146 314.013,359.833 314.705,359.560 315.661 M41.621 318.225 C 41.609 318.459,42.041 319.539,42.579 320.625 C 43.117 321.711,43.567 322.409,43.579 322.175 C 43.591 321.941,43.159 320.861,42.621 319.775 C 42.083 318.689,41.633 317.991,41.621 318.225 M356.885 322.173 C 356.215 323.644,356.278 323.952,357.030 322.879 C 357.376 322.384,357.595 321.784,357.515 321.544 C 357.435 321.305,357.152 321.588,356.885 322.173 M44.432 324.277 C 44.391 324.895,46.039 327.695,46.293 327.440 C 46.400 327.333,46.133 326.741,45.701 326.123 C 45.268 325.505,44.813 324.730,44.689 324.400 C 44.565 324.070,44.449 324.015,44.432 324.277 M354.881 326.176 C 354.219 327.399,353.797 328.400,353.944 328.400 C 354.286 328.400,356.475 324.341,356.252 324.119 C 356.161 324.027,355.544 324.953,354.881 326.176 M46.467 328.300 C 46.958 329.407,48.650 331.994,48.883 331.997 C 49.039 331.999,48.607 331.100,47.924 330.000 C 46.861 328.290,46.033 327.324,46.467 328.300 M351.995 331.069 C 350.426 333.658,345.957 339.375,344.535 340.613 C 344.021 341.060,343.600 341.587,343.600 341.784 C 343.600 342.126,346.099 339.618,347.802 337.566 C 349.432 335.603,352.800 330.800,352.800 330.439 C 352.800 330.234,353.007 329.998,353.260 329.913 C 353.513 329.829,353.646 329.537,353.555 329.264 C 353.463 328.990,352.761 329.803,351.995 331.069 M49.222 332.527 C 49.203 332.804,50.970 335.384,51.600 336.000 C 51.713 336.110,52.791 337.370,53.997 338.800 C 58.072 343.635,68.400 352.711,68.400 351.457 C 68.400 351.337,67.603 350.690,66.630 350.021 C 65.656 349.351,64.621 348.573,64.330 348.293 C 64.038 348.012,63.260 347.372,62.600 346.869 C 59.328 344.378,54.373 339.017,50.122 333.367 C 49.639 332.725,49.234 332.347,49.222 332.527 M340.575 344.534 C 339.465 345.873,334.246 349.989,331.200 351.928 C 329.770 352.838,328.915 353.587,329.300 353.592 C 329.685 353.596,330.000 353.420,330.000 353.200 C 330.000 352.980,330.183 352.800,330.406 352.800 C 330.793 352.800,335.522 349.500,337.566 347.802 C 339.708 346.025,342.119 343.600,341.746 343.600 C 341.528 343.600,341.000 344.020,340.575 344.534 M69.200 352.200 C 69.474 352.530,69.878 352.800,70.098 352.800 C 70.321 352.800,70.278 352.535,70.000 352.200 C 69.726 351.870,69.322 351.600,69.102 351.600 C 68.879 351.600,68.922 351.865,69.200 352.200 M70.800 353.127 C 70.800 353.316,71.250 353.677,71.800 353.927 C 72.350 354.178,72.800 354.317,72.800 354.237 C 72.800 354.157,72.350 353.797,71.800 353.437 C 71.250 353.076,70.800 352.937,70.800 353.127 M326.073 354.915 C 324.903 355.555,324.027 356.160,324.125 356.259 C 324.272 356.405,327.780 354.657,328.367 354.145 C 329.062 353.539,327.831 353.952,326.073 354.915 M77.200 356.591 C 77.200 356.860,80.461 358.404,80.975 358.379 C 81.209 358.367,80.511 357.917,79.425 357.379 C 77.325 356.338,77.200 356.293,77.200 356.591 M322.000 357.000 C 321.420 357.332,321.252 357.572,321.600 357.573 C 321.930 357.574,322.549 357.310,322.976 356.987 C 323.964 356.240,323.315 356.248,322.000 357.000 M82.800 359.040 C 85.566 360.362,85.928 360.491,86.420 360.327 C 86.850 360.183,85.717 359.726,82.200 358.622 C 81.760 358.484,82.030 358.672,82.800 359.040 M317.780 358.733 C 317.571 358.915,316.617 359.288,315.661 359.560 C 314.705 359.833,314.013 360.146,314.123 360.256 C 314.338 360.472,317.721 359.407,318.769 358.794 C 319.331 358.465,319.332 358.423,318.780 358.412 C 318.439 358.405,317.989 358.550,317.780 358.733 M87.800 360.718 C 88.279 361.240,91.179 362.023,93.400 362.230 C 94.382 362.322,93.842 362.094,92.000 361.638 C 90.350 361.231,88.640 360.759,88.200 360.590 C 87.633 360.372,87.516 360.409,87.800 360.718 M311.905 360.628 C 311.779 360.754,310.354 361.202,308.738 361.624 C 305.643 362.433,307.173 362.406,310.600 361.591 C 312.626 361.110,313.905 360.400,312.747 360.400 C 312.409 360.400,312.031 360.503,311.905 360.628 M96.400 362.779 C 96.730 363.004,97.525 363.191,98.167 363.194 C 99.704 363.202,99.384 362.970,97.400 362.638 C 96.254 362.446,95.970 362.486,96.400 362.779 M302.600 362.800 L 301.400 363.105 302.876 363.153 C 303.688 363.179,304.464 363.020,304.600 362.800 C 304.877 362.351,304.363 362.351,302.600 362.800 M102.800 363.617 C 105.710 364.019,295.618 364.021,298.200 363.618 C 299.300 363.447,255.290 363.308,200.400 363.310 C 145.510 363.311,101.590 363.449,102.800 363.617 " stroke="none" fill="#97847f" fill-rule="evenodd"></path><path id="path4" d="M151.132 37.900 C 178.265 37.957,222.545 37.957,249.532 37.900 C 276.519 37.843,254.320 37.797,200.200 37.797 C 146.080 37.797,123.999 37.843,151.132 37.900 M95.400 38.608 C 93.471 39.014,93.275 39.118,94.400 39.139 C 95.170 39.154,96.790 38.919,98.000 38.617 C 100.840 37.908,98.759 37.901,95.400 38.608 M301.800 38.431 C 302.680 38.650,304.390 38.904,305.600 38.994 L 307.800 39.158 306.000 38.774 C 305.010 38.563,303.300 38.310,302.200 38.211 L 300.200 38.031 301.800 38.431 M91.000 39.600 C 90.286 39.907,90.315 39.947,91.276 39.972 C 91.868 39.987,92.464 39.820,92.600 39.600 C 92.895 39.122,92.111 39.122,91.000 39.600 M308.200 39.600 C 308.336 39.820,308.932 39.987,309.524 39.972 C 310.485 39.947,310.514 39.907,309.800 39.600 C 308.689 39.122,307.905 39.122,308.200 39.600 M87.400 40.489 C 85.183 41.236,83.780 41.948,84.476 41.974 C 84.848 41.988,85.264 41.820,85.400 41.600 C 85.536 41.380,86.042 41.192,86.524 41.182 C 87.006 41.172,87.940 40.917,88.600 40.614 C 89.988 39.979,89.169 39.894,87.400 40.489 M312.000 40.600 C 312.550 40.914,313.369 41.178,313.820 41.186 C 314.271 41.194,314.837 41.397,315.078 41.638 C 315.318 41.878,315.836 42.013,316.228 41.938 C 316.620 41.862,315.760 41.395,314.318 40.900 C 311.324 39.873,310.553 39.773,312.000 40.600 M82.000 42.390 C 81.670 42.579,80.680 43.040,79.800 43.415 C 77.104 44.562,74.221 46.035,73.800 46.478 C 73.292 47.014,73.530 46.924,76.800 45.343 C 78.230 44.652,80.255 43.706,81.300 43.241 C 82.345 42.776,83.200 42.307,83.200 42.198 C 83.200 41.913,82.693 41.994,82.000 42.390 M317.381 42.369 C 317.506 42.572,318.145 42.856,318.800 43.000 C 319.455 43.144,320.094 43.428,320.219 43.631 C 320.345 43.834,320.752 43.985,321.124 43.967 C 321.496 43.948,320.900 43.509,319.800 42.991 C 317.602 41.956,317.035 41.810,317.381 42.369 M324.224 45.387 C 324.651 45.710,325.210 45.980,325.467 45.987 C 325.723 45.994,326.002 46.207,326.087 46.460 C 326.171 46.713,326.469 46.844,326.750 46.750 C 327.030 46.657,326.509 46.180,325.592 45.690 C 323.672 44.665,323.102 44.539,324.224 45.387 M70.800 48.037 C 69.810 48.682,68.699 49.464,68.332 49.774 C 67.964 50.084,67.303 50.531,66.863 50.766 C 66.423 51.002,65.823 51.421,65.531 51.697 C 65.238 51.974,64.099 52.916,62.999 53.790 C 60.440 55.825,55.836 60.428,53.790 62.996 C 52.916 64.094,51.885 65.343,51.500 65.771 C 51.115 66.200,50.800 66.684,50.800 66.847 C 50.800 67.010,50.563 67.381,50.274 67.671 C 48.831 69.122,46.222 73.777,47.400 72.800 C 47.730 72.526,48.000 72.054,48.000 71.751 C 48.000 71.448,48.180 71.200,48.400 71.200 C 48.620 71.200,48.800 71.017,48.800 70.794 C 48.800 70.342,52.323 65.377,54.188 63.200 C 58.816 57.797,69.191 48.800,70.794 48.800 C 71.017 48.800,71.200 48.620,71.200 48.400 C 71.200 48.180,71.448 48.000,71.751 48.000 C 72.054 48.000,72.526 47.730,72.800 47.400 C 73.554 46.491,72.801 46.731,70.800 48.037 M327.600 46.986 C 327.600 47.299,330.050 48.883,330.240 48.693 C 330.347 48.586,329.796 48.123,329.017 47.663 C 328.238 47.203,327.600 46.899,327.600 46.986 M330.800 49.146 C 330.800 49.366,331.128 49.650,331.529 49.778 C 331.931 49.905,332.606 50.322,333.030 50.705 C 333.454 51.087,334.880 52.198,336.200 53.173 C 339.136 55.341,345.405 61.636,347.705 64.724 C 348.637 65.976,349.580 67.200,349.800 67.443 C 350.020 67.687,350.740 68.809,351.400 69.935 C 352.060 71.062,352.733 71.988,352.895 71.992 C 353.197 72.000,351.160 68.669,349.110 65.800 C 345.007 60.060,330.800 47.137,330.800 49.146 M353.200 72.586 C 353.200 72.880,355.258 76.557,355.671 77.000 C 355.876 77.220,355.805 76.860,355.513 76.200 C 354.339 73.544,353.200 71.765,353.200 72.586 M45.650 75.006 C 45.182 75.798,44.800 76.521,44.800 76.612 C 44.800 76.814,42.888 81.106,42.338 82.139 C 42.122 82.545,42.037 82.970,42.150 83.083 C 42.262 83.196,42.741 82.413,43.213 81.344 C 43.685 80.275,44.684 78.154,45.434 76.632 C 46.903 73.648,47.034 72.659,45.650 75.006 M356.000 77.848 C 356.000 78.573,357.650 81.683,357.901 81.432 C 358.036 81.297,357.934 80.974,357.673 80.713 C 357.413 80.453,357.194 79.961,357.187 79.620 C 357.173 78.944,356.000 77.193,356.000 77.848 M358.000 82.710 C 358.000 83.173,358.180 83.664,358.400 83.800 C 358.620 83.936,358.806 84.442,358.814 84.924 C 358.828 85.770,359.957 88.183,359.986 87.427 C 360.001 87.025,358.395 82.309,358.149 82.033 C 358.067 81.942,358.000 82.246,358.000 82.710 M41.310 85.087 C 40.332 87.822,39.942 89.275,40.136 89.469 C 40.251 89.584,40.557 88.895,40.816 87.939 C 41.076 86.983,41.479 85.795,41.711 85.301 C 41.944 84.806,42.038 84.305,41.921 84.188 C 41.804 84.070,41.529 84.475,41.310 85.087 M360.028 88.676 C 360.013 89.158,360.180 89.664,360.400 89.800 C 360.873 90.092,360.873 89.701,360.400 88.600 C 360.069 87.829,360.055 87.831,360.028 88.676 M39.462 91.347 C 39.297 91.978,39.256 92.589,39.371 92.704 C 39.693 93.027,40.087 91.738,39.915 90.923 C 39.803 90.390,39.684 90.501,39.462 91.347 M360.985 91.800 C 361.064 92.680,361.319 94.030,361.551 94.800 L 361.974 96.200 361.810 94.800 C 361.720 94.030,361.465 92.680,361.243 91.800 L 360.840 90.200 360.985 91.800 M38.441 96.316 C 38.143 98.140,37.983 99.716,38.085 99.819 C 38.369 100.103,39.315 94.691,39.138 93.791 C 39.053 93.356,38.739 94.492,38.441 96.316 M362.053 98.200 C 362.031 99.080,362.187 100.070,362.400 100.400 C 362.875 101.136,362.875 99.668,362.400 97.800 C 362.106 96.644,362.093 96.659,362.053 98.200 M37.797 200.200 C 37.797 254.320,37.843 276.401,37.900 249.268 C 37.957 222.135,37.957 177.855,37.900 150.868 C 37.843 123.881,37.797 146.080,37.797 200.200 M362.997 200.400 C 362.997 253.970,363.043 275.885,363.100 249.100 C 363.157 222.315,363.157 178.485,363.100 151.700 C 363.043 124.915,362.997 146.830,362.997 200.400 M143.268 109.500 C 174.435 109.557,225.555 109.557,256.868 109.500 C 288.180 109.443,262.680 109.397,200.200 109.397 C 137.720 109.397,112.100 109.443,143.268 109.500 M314.600 110.000 C 315.701 110.473,316.092 110.473,315.800 110.000 C 315.664 109.780,315.158 109.613,314.676 109.628 C 313.831 109.655,313.829 109.669,314.600 110.000 M82.400 110.757 C 82.400 110.953,81.950 111.226,81.400 111.364 C 80.850 111.502,80.400 111.789,80.400 112.001 C 80.400 112.213,80.985 112.059,81.700 111.658 C 82.415 111.258,83.270 110.825,83.600 110.697 C 84.005 110.539,83.908 110.453,83.300 110.432 C 82.805 110.414,82.400 110.560,82.400 110.757 M318.800 111.649 C 321.222 113.015,324.400 115.872,324.400 116.683 C 324.400 116.967,324.536 117.200,324.702 117.200 C 324.869 117.200,325.261 117.779,325.574 118.486 C 325.904 119.231,326.217 119.548,326.320 119.239 C 326.418 118.947,326.340 118.593,326.148 118.454 C 325.956 118.314,325.557 117.729,325.261 117.154 C 324.040 114.781,318.737 110.392,317.105 110.404 C 316.827 110.406,317.590 110.966,318.800 111.649 M78.115 113.900 C 75.995 115.950,74.394 118.199,74.432 119.073 C 74.456 119.637,74.514 119.665,74.691 119.200 C 75.133 118.035,77.330 115.075,78.740 113.746 C 79.525 113.006,80.054 112.400,79.917 112.400 C 79.779 112.400,78.969 113.075,78.115 113.900 M326.656 120.800 C 326.825 121.350,326.963 123.690,326.963 126.000 C 326.963 128.310,326.825 130.650,326.656 131.200 L 326.350 132.200 326.961 131.200 C 327.406 130.471,327.572 129.063,327.572 126.000 C 327.572 122.937,327.406 121.529,326.961 120.800 L 326.350 119.800 326.656 120.800 M73.043 123.433 C 72.694 124.341,72.795 127.658,73.200 128.600 C 73.431 129.137,73.553 128.316,73.572 126.100 C 73.600 122.790,73.494 122.256,73.043 123.433 M74.402 132.765 C 74.391 135.399,81.821 141.957,84.800 141.942 C 85.350 141.939,85.530 141.848,85.200 141.739 C 80.517 140.196,77.110 137.385,74.985 133.311 C 74.666 132.700,74.404 132.454,74.402 132.765 M325.211 133.978 C 324.747 134.888,323.339 136.649,322.084 137.892 C 320.828 139.134,320.340 139.773,321.000 139.310 C 323.368 137.651,326.861 133.128,326.248 132.514 C 326.142 132.409,325.676 133.067,325.211 133.978 M318.633 140.300 C 318.469 140.465,317.584 140.905,316.667 141.278 C 315.750 141.650,315.281 141.965,315.625 141.978 C 316.289 142.001,319.600 140.513,319.600 140.191 C 319.600 139.895,318.967 139.966,318.633 140.300 M86.800 142.400 C 87.184 142.648,128.055 142.788,200.200 142.788 C 272.345 142.788,313.216 142.648,313.600 142.400 C 313.988 142.149,273.945 142.012,200.200 142.012 C 126.455 142.012,86.412 142.149,86.800 142.400 M85.629 184.033 C 84.654 184.225,83.664 184.593,83.429 184.850 C 83.108 185.200,83.201 185.239,83.800 185.006 C 86.176 184.082,97.040 183.998,202.134 184.095 C 298.295 184.184,315.579 184.284,316.148 184.757 C 316.517 185.063,316.920 185.213,317.044 185.089 C 318.296 183.838,91.850 182.804,85.629 184.033 M81.600 185.600 C 81.600 185.820,81.401 186.000,81.158 186.000 C 79.803 186.000,74.400 191.885,74.400 193.359 C 74.400 193.686,74.220 194.064,74.000 194.200 C 73.780 194.336,73.609 194.842,73.621 195.324 C 73.635 195.950,73.826 195.744,74.289 194.600 C 75.599 191.362,78.078 188.450,81.393 186.255 C 82.381 185.601,82.722 185.200,82.293 185.200 C 81.912 185.200,81.600 185.380,81.600 185.600 M318.000 185.390 C 318.000 185.494,318.568 185.873,319.263 186.233 C 319.957 186.592,321.440 187.721,322.558 188.743 C 323.676 189.764,324.322 190.240,323.995 189.800 C 322.470 187.749,318.000 184.461,318.000 185.390 M326.643 195.200 C 327.152 196.934,327.293 204.067,326.828 204.532 C 326.592 204.768,326.406 205.239,326.414 205.580 C 326.423 205.973,326.637 205.835,327.000 205.200 C 327.819 203.768,327.790 196.558,326.961 195.200 L 326.350 194.200 326.643 195.200 M73.052 197.700 C 72.706 198.991,72.796 202.460,73.200 203.400 C 73.427 203.927,73.553 202.939,73.572 200.500 C 73.601 196.732,73.482 196.095,73.052 197.700 M74.400 207.101 C 74.400 207.701,75.735 209.994,76.087 209.997 C 76.244 209.999,75.987 209.325,75.514 208.500 C 74.438 206.620,74.400 206.572,74.400 207.101 M324.879 208.796 C 324.194 209.898,323.762 210.800,323.920 210.800 C 324.382 210.800,326.557 207.223,326.270 206.936 C 326.190 206.857,325.564 207.693,324.879 208.796 M76.400 210.576 C 76.400 212.199,84.320 216.834,86.932 216.740 C 88.276 216.692,88.367 216.648,87.400 216.512 C 84.040 216.043,80.934 214.531,78.337 212.102 C 77.272 211.106,76.400 210.419,76.400 210.576 M320.200 213.834 C 319.540 214.363,319.180 214.793,319.400 214.789 C 319.952 214.780,321.833 213.299,321.594 213.063 C 321.487 212.958,320.860 213.305,320.200 213.834 M317.842 215.132 C 317.730 215.314,316.594 215.694,315.319 215.977 C 312.063 216.698,311.998 216.733,313.876 216.768 C 314.798 216.786,315.664 216.620,315.800 216.400 C 315.936 216.180,316.362 216.000,316.747 216.000 C 317.528 216.000,319.275 214.833,318.524 214.813 C 318.262 214.806,317.955 214.949,317.842 215.132 M85.200 258.471 C 84.650 258.700,83.772 259.055,83.248 259.259 C 82.725 259.463,82.406 259.739,82.539 259.872 C 82.672 260.005,83.010 259.934,83.290 259.715 C 84.938 258.424,87.126 258.400,200.477 258.418 C 313.892 258.435,316.194 258.461,317.447 259.714 C 317.605 259.871,317.928 259.994,318.167 259.987 C 319.010 259.963,317.033 258.800,316.147 258.800 C 315.652 258.800,315.136 258.620,315.000 258.400 C 314.648 257.831,86.566 257.902,85.200 258.471 M80.508 260.541 C 80.017 260.784,79.523 261.223,79.411 261.517 C 79.248 261.939,80.540 261.239,81.967 260.130 C 82.330 259.847,81.349 260.124,80.508 260.541 M321.554 262.286 C 322.519 263.095,323.824 264.468,324.454 265.338 C 325.704 267.063,326.013 267.029,324.917 265.286 C 324.072 263.943,320.765 260.797,320.209 260.808 C 319.984 260.812,320.589 261.477,321.554 262.286 M76.739 263.914 C 75.863 264.898,75.108 266.133,73.943 268.495 C 73.754 268.877,73.614 269.507,73.632 269.895 C 73.657 270.453,73.711 270.475,73.891 270.000 C 74.710 267.842,76.110 265.230,76.980 264.238 C 77.541 263.599,78.000 263.014,78.000 262.938 C 78.000 262.613,77.672 262.867,76.739 263.914 M326.663 269.600 C 329.338 278.272,323.794 288.229,315.000 290.544 C 313.903 290.833,278.057 291.003,200.925 291.084 C 84.418 291.207,87.116 291.237,83.434 289.769 C 82.952 289.577,82.761 289.613,82.919 289.868 C 83.056 290.091,84.301 290.575,85.684 290.945 C 88.880 291.800,312.485 291.773,315.372 290.917 C 319.855 289.590,324.296 285.859,326.229 281.796 C 327.684 278.740,328.140 271.701,327.011 269.741 C 326.416 268.708,326.383 268.695,326.663 269.600 M73.067 271.867 C 72.655 272.278,72.763 276.924,73.200 277.600 C 73.468 278.014,73.590 277.178,73.594 274.900 C 73.600 271.592,73.562 271.372,73.067 271.867 M73.606 279.900 C 73.603 280.395,73.780 280.800,74.000 280.800 C 74.501 280.800,74.501 280.376,74.000 279.600 C 73.686 279.115,73.611 279.172,73.606 279.900 M74.409 281.508 C 74.382 282.993,78.618 287.849,80.961 289.020 C 82.865 289.971,82.717 289.686,80.547 288.224 C 78.302 286.713,76.015 284.237,75.044 282.269 C 74.700 281.571,74.414 281.229,74.409 281.508 M362.300 300.231 C 362.135 300.397,362.018 301.358,362.040 302.367 L 362.080 304.200 362.452 302.611 C 362.855 300.893,362.781 299.745,362.300 300.231 M38.211 302.200 C 38.310 303.300,38.563 305.010,38.774 306.000 L 39.158 307.800 38.994 305.600 C 38.904 304.390,38.650 302.680,38.431 301.800 L 38.031 300.200 38.211 302.200 M361.300 306.539 C 361.025 307.569,360.800 308.823,360.800 309.326 C 360.800 309.829,360.603 310.437,360.362 310.678 C 360.122 310.918,360.000 311.449,360.092 311.858 C 360.200 312.340,360.435 311.969,360.761 310.800 C 361.037 309.810,361.448 308.355,361.674 307.566 C 361.900 306.778,362.020 305.803,361.942 305.400 C 361.859 304.973,361.591 305.449,361.300 306.539 M39.228 308.476 C 39.296 309.744,39.942 310.654,39.972 309.524 C 39.987 308.932,39.820 308.336,39.600 308.200 C 39.380 308.064,39.213 308.188,39.228 308.476 M40.014 311.347 C 39.979 312.205,41.815 316.863,41.938 316.228 C 42.013 315.836,41.878 315.318,41.638 315.078 C 41.397 314.837,41.194 314.271,41.186 313.820 C 41.172 313.028,40.043 310.644,40.014 311.347 M359.265 314.217 C 359.009 314.778,358.800 315.579,358.800 315.995 C 358.800 316.412,358.620 316.864,358.400 317.000 C 358.180 317.136,358.005 317.552,358.012 317.924 C 358.029 318.877,358.563 317.925,359.410 315.431 C 360.112 313.363,360.017 312.566,359.265 314.217 M42.025 317.476 C 42.083 318.252,43.937 321.733,43.967 321.124 C 43.985 320.752,43.834 320.345,43.631 320.219 C 43.428 320.094,43.144 319.455,43.000 318.800 C 42.768 317.744,41.962 316.650,42.025 317.476 M357.200 319.602 C 357.200 319.823,356.751 320.934,356.203 322.071 C 355.654 323.208,355.286 324.220,355.385 324.319 C 355.529 324.462,356.581 322.469,357.930 319.500 C 358.005 319.335,357.872 319.200,357.633 319.200 C 357.395 319.200,357.200 319.381,357.200 319.602 M44.800 323.686 C 44.800 324.352,46.604 327.187,46.750 326.750 C 46.844 326.469,46.713 326.171,46.460 326.087 C 46.207 326.002,45.994 325.723,45.987 325.467 C 45.975 324.999,44.800 323.237,44.800 323.686 M354.346 325.977 C 354.048 326.650,353.669 327.200,353.502 327.200 C 353.336 327.200,353.200 327.411,353.200 327.668 C 353.200 328.094,348.612 335.131,348.028 335.600 C 347.891 335.710,347.182 336.568,346.451 337.507 C 344.741 339.703,339.703 344.741,337.507 346.451 C 336.568 347.182,335.710 347.891,335.600 348.028 C 335.131 348.612,328.094 353.200,327.668 353.200 C 327.411 353.200,327.200 353.336,327.200 353.502 C 327.200 353.669,326.650 354.048,325.977 354.346 C 325.304 354.644,324.833 354.966,324.929 355.062 C 325.128 355.261,327.928 353.743,331.197 351.666 C 338.256 347.180,347.180 338.256,351.666 331.197 C 353.743 327.928,355.261 325.128,355.062 324.929 C 354.966 324.833,354.644 325.304,354.346 325.977 M47.663 329.017 C 48.123 329.796,48.586 330.347,48.693 330.240 C 48.883 330.050,47.299 327.600,46.986 327.600 C 46.899 327.600,47.203 328.238,47.663 329.017 M50.771 333.675 C 55.733 340.717,62.361 347.037,69.700 351.722 C 70.965 352.529,71.996 353.057,71.992 352.895 C 71.988 352.733,71.062 352.060,69.935 351.400 C 68.809 350.740,67.687 350.020,67.443 349.800 C 67.200 349.580,65.976 348.637,64.724 347.705 C 61.636 345.405,55.341 339.136,53.173 336.200 C 52.198 334.880,51.087 333.454,50.705 333.030 C 50.322 332.606,49.905 331.931,49.778 331.529 C 49.650 331.128,49.366 330.800,49.146 330.800 C 48.926 330.800,49.657 332.094,50.771 333.675 M72.400 353.390 C 72.400 353.602,74.376 354.706,76.200 355.513 C 77.875 356.253,76.981 355.508,74.686 354.249 C 72.735 353.180,72.400 353.054,72.400 353.390 M322.000 356.219 C 321.010 356.733,319.975 357.163,319.700 357.176 C 319.425 357.189,319.200 357.395,319.200 357.633 C 319.200 357.872,319.335 358.005,319.500 357.930 C 322.169 356.718,324.400 355.568,324.400 355.405 C 324.400 355.066,323.889 355.239,322.000 356.219 M78.224 356.587 C 78.651 356.910,79.279 357.180,79.620 357.187 C 79.961 357.194,80.453 357.413,80.713 357.673 C 80.974 357.934,81.297 358.036,81.432 357.901 C 81.567 357.766,80.906 357.283,79.964 356.828 C 77.967 355.864,77.110 355.745,78.224 356.587 M82.033 358.149 C 82.309 358.395,87.025 360.001,87.427 359.986 C 88.183 359.957,85.770 358.828,84.924 358.814 C 84.442 358.806,83.936 358.620,83.800 358.400 C 83.664 358.180,83.173 358.000,82.710 358.000 C 82.246 358.000,81.942 358.067,82.033 358.149 M317.000 358.400 C 316.864 358.620,316.358 358.806,315.876 358.814 C 315.008 358.828,312.625 359.959,313.406 359.986 C 313.897 360.003,318.014 358.520,318.317 358.216 C 318.436 358.097,318.244 358.000,317.890 358.000 C 317.537 358.000,317.136 358.180,317.000 358.400 M88.600 360.400 C 89.701 360.873,90.092 360.873,89.800 360.400 C 89.664 360.180,89.158 360.013,88.676 360.028 C 87.831 360.055,87.829 360.069,88.600 360.400 M310.600 360.400 C 310.464 360.620,309.868 360.803,309.276 360.806 C 308.684 360.809,307.390 361.080,306.400 361.408 C 304.753 361.953,304.719 361.989,306.000 361.832 C 309.652 361.384,313.874 360.042,311.724 360.012 C 311.242 360.005,310.736 360.180,310.600 360.400 M91.800 361.243 C 92.680 361.465,94.030 361.720,94.800 361.810 L 96.200 361.974 94.800 361.551 C 94.030 361.319,92.680 361.064,91.800 360.985 L 90.200 360.840 91.800 361.243 M97.800 362.400 C 99.668 362.875,101.136 362.875,100.400 362.400 C 100.070 362.187,99.080 362.031,98.200 362.053 C 96.659 362.093,96.644 362.106,97.800 362.400 M300.200 362.400 C 299.918 362.856,301.210 362.856,303.000 362.400 C 304.077 362.126,304.008 362.090,302.324 362.047 C 301.292 362.021,300.336 362.180,300.200 362.400 M151.700 363.100 C 178.485 363.157,222.315 363.157,249.100 363.100 C 275.885 363.043,253.970 362.997,200.400 362.997 C 146.830 362.997,124.915 363.043,151.700 363.100 " stroke="none" fill="#ccb4ac" fill-rule="evenodd"></path></g></svg>